SplineFontDB: 3.0
FontName: LizardIcons
FullName: Lizard Icons
FamilyName: Lizard Icons
Weight: Regular
Copyright: Copyright (c) 2016, Nelen & Schuurmans.
UComments: "2016-3-14: Created with FontForge (http://fontforge.org)"
Version: 001.000
ItalicAngle: 0
UnderlinePosition: -102.4
UnderlineWidth: 51.2
Ascent: 819
Descent: 205
InvalidEm: 0
LayerCount: 3
Layer: 0 0 "Back" 1
Layer: 1 0 "Fore" 0
Layer: 2 0 "Back 2" 1
XUID: [1021 328 -419692491 16376558]
FSType: 0
OS2Version: 0
OS2_WeightWidthSlopeOnly: 0
OS2_UseTypoMetrics: 1
CreationTime: 1457966253
ModificationTime: 1475132427
PfmFamily: 17
TTFWeight: 400
TTFWidth: 5
LineGap: 92
VLineGap: 0
OS2TypoAscent: 0
OS2TypoAOffset: 1
OS2TypoDescent: 0
OS2TypoDOffset: 1
OS2TypoLinegap: 92
OS2WinAscent: 0
OS2WinAOffset: 1
OS2WinDescent: 0
OS2WinDOffset: 1
HheadAscent: 0
HheadAOffset: 1
HheadDescent: 0
HheadDOffset: 1
OS2Vendor: 'PfEd'
MarkAttachClasses: 1
DEI: 91125
LangName: 1033
Encoding: UnicodeBmp
UnicodeInterp: none
NameList: AGL For New Fonts
DisplaySize: -48
AntiAlias: 1
FitToEm: 0
WinInfo: 51 17 13
BeginPrivate: 0
EndPrivate
TeXData: 1 0 0 346030 173015 115343 404031 1048576 115343 783286 444596 497025 792723 393216 433062 380633 303038 157286 324010 404750 52429 2506097 1059062 262144
BeginChars: 65536 90

StartChar: a
Encoding: 97 97 0
Width: 893
VWidth: 724
Flags: HW
HStem: 743.75 20G<122.526 166.898 718.035 764.227>
VStem: 325.5 63<183.25 580.75> 498 63<186.25 585.25>
LayerCount: 3
Fore
SplineSet
32.16015625 809.282226562 m 1
 370.740234375 615.2421875 l 1
 370.740234375 3.4228515625 l 1
 36.1201171875 -194.577148438 l 1
 -3.48046875 -129.237304688 l 1
 287.580078125 43.0224609375 l 1
 287.580078125 567.72265625 l 1
 -3.48046875 734.04296875 l 1
 32.16015625 809.282226562 l 1
32.16015625 809.282226562 m 1024
853.860351562 -194.577148438 m 1
 515.280273438 -2.517578125 l 1
 515.280273438 609.302734375 l 1
 849.900390625 809.282226562 l 1
 891.48046875 743.942382812 l 1
 598.440429688 573.663085938 l 1
 598.440429688 46.982421875 l 1
 891.48046875 -119.336914062 l 1
 853.860351562 -194.577148438 l 1
853.860351562 -194.577148438 m 1024
EndSplineSet
EndChar

StartChar: b
Encoding: 98 98 1
Width: 571
VWidth: 876
Flags: HW
HStem: 4.75 21G<397.75 501.25> 758.75 18.5G<67.75 166.75 399.25 501.25>
VStem: 67.75 100.5<0.25 165.25 630.25 778.75> 397.75 103.5<4.75 165.25 630.25 777.25>
LayerCount: 3
Fore
SplineSet
-1.6103515625 820.600585938 m 1
 129.0703125 820.600585938 l 1
 129.0703125 624.580078125 l 1
 435.969726562 624.580078125 l 1
 435.969726562 818.620117188 l 1
 570.610351562 818.620117188 l 1
 570.610351562 -201.080078125 l 1
 433.990234375 -201.080078125 l 1
 433.990234375 10.7802734375 l 1
 131.049804688 10.7802734375 l 1
 131.049804688 -207.01953125 l 1
 -1.6103515625 -207.01953125 l 1
 -1.6103515625 820.600585938 l 1
-1.6103515625 820.600585938 m 1024
EndSplineSet
EndChar

StartChar: c
Encoding: 99 99 2
Width: 573
VWidth: 876
Flags: HW
HStem: 159.75 84<172.5 399> 528.75 87<172.5 399> 759.25 20G<67.5 172.5 399 502.5>
VStem: 67.5 105<0.75 159.75 243.75 528.75 615.75 779.25> 399 103.5<-2.25 159.75 243.75 528.75 615.75 779.25>
LayerCount: 3
Fore
SplineSet
0.0751953125 820.366210938 m 1
 137.625 820.366210938 l 1
 137.625 606.180664062 l 1
 434.33984375 606.180664062 l 1
 434.33984375 820.366210938 l 1
 569.924804688 820.366210938 l 1
 569.924804688 -203.399414062 l 1
 438.26953125 -203.399414062 l 1
 438.26953125 8.8212890625 l 1
 137.625 8.8212890625 l 1
 137.625 -199.46875 l 1
 0.0751953125 -199.46875 l 1
 0.0751953125 820.366210938 l 1
137.625 492.2109375 m 1
 135.66015625 118.860351562 l 1
 434.33984375 118.860351562 l 1
 434.33984375 492.2109375 l 1
 137.625 492.2109375 l 1
137.625 492.2109375 m 1024
EndSplineSet
EndChar

StartChar: d
Encoding: 100 100 3
Width: 1199
VWidth: 671
Flags: HW
HStem: 315.841 162.359<424.721 569.26 620.74 765.28> 616.6 20G<125.54 165.044 1024.79 1064.46>
VStem: 424.721 144.539<315.841 478.2> 620.74 144.54<315.841 478.2>
LayerCount: 3
Fore
SplineSet
55.6484375 569.119140625 m 1
 336.015625 281.625 l 1
 53.271484375 -1.119140625 l 1
 -3.751953125 55.904296875 l 1
 217.215820312 281.625 l 1
 -6.12890625 507.34375 l 1
 55.6484375 569.119140625 l 1
55.6484375 569.119140625 m 1024
1134.3515625 569.119140625 m 1
 1196.12890625 507.34375 l 1
 972.784179688 281.625 l 1
 1193.75195312 55.904296875 l 1
 1136.72851562 -1.119140625 l 1
 851.609375 281.625 l 1
 1134.3515625 569.119140625 l 1
1134.3515625 569.119140625 m 1024
390.665039062 379.040039062 m 1
 564.111328125 379.040039062 l 1
 564.111328125 184.208984375 l 1
 390.665039062 184.208984375 l 1
 390.665039062 379.040039062 l 1
390.665039062 379.040039062 m 1024
625.888671875 379.040039062 m 1
 799.3359375 379.040039062 l 1
 799.3359375 184.208984375 l 1
 625.888671875 184.208984375 l 1
 625.888671875 379.040039062 l 1
625.888671875 379.040039062 m 1024
EndSplineSet
EndChar

StartChar: e
Encoding: 101 101 4
Width: 1158
VWidth: 668
Flags: HW
HStem: 337.19 142.56<479.04 603.78 651.3 776.04> 600.33 21.9795G<102.567 158.279 211.54 251.163 1003.92 1042.67>
VStem: 96.9 61.3789<188.69 622.31> 479.04 124.74<337.19 479.75> 651.3 124.74<337.19 479.75>
LayerCount: 3
Fore
SplineSet
161.448242188 521.295898438 m 1
 408.551757812 269.440429688 l 1
 159.071289062 17.583984375 l 1
 109.17578125 69.85546875 l 1
 304.008789062 269.440429688 l 1
 106.799804688 466.6484375 l 1
 161.448242188 521.295898438 l 1
161.448242188 521.295898438 m 1024
1111.84765625 521.295898438 m 1
 1164.11914062 466.6484375 l 1
 969.288085938 269.440429688 l 1
 1161.74414062 69.85546875 l 1
 1114.22460938 17.583984375 l 1
 864.744140625 269.440429688 l 1
 1111.84765625 521.295898438 l 1
1111.84765625 521.295898438 m 1024
458.448242188 352.599609375 m 1
 608.13671875 352.599609375 l 1
 608.13671875 181.528320312 l 1
 458.448242188 181.528320312 l 1
 458.448242188 352.599609375 l 1
458.448242188 352.599609375 m 1024
665.16015625 352.599609375 m 1
 814.84765625 352.599609375 l 1
 814.84765625 181.528320312 l 1
 665.16015625 181.528320312 l 1
 665.16015625 352.599609375 l 1
665.16015625 352.599609375 m 1024
7.0087890625 523.671875 m 1
 73.53515625 523.671875 l 1
 73.53515625 3.328125 l 1
 -0.119140625 3.328125 l 1
 7.0087890625 523.671875 l 1
7.0087890625 523.671875 m 1024
EndSplineSet
EndChar

StartChar: f
Encoding: 102 102 5
Width: 1017
VWidth: 686
Flags: HW
HStem: -7653.35 1105.02<-1122.11 2178.17> -4890.78 4972.62<-686.913 1742.09> 1739.4 1105.02<-1122.11 2178.17>
VStem: -4730.74 1105.04<-4044.73 -749.516> -1994.47 4998.95<-3594.98 -1206.19> 4635.71 1105.04<-4044.73 -749.516>
CounterMasks: 1 fc
LayerCount: 3
Fore
SplineSet
507.555664062 -201.85546875 m 0
 366.975585938 -201.85546875 246.844726562 -150.735351562 147.16015625 -51.052734375 c 0
 47.4755859375 48.6318359375 -3.64453125 168.764648438 -3.64453125 309.344726562 c 0
 -3.64453125 449.924804688 47.4755859375 567.500976562 147.16015625 667.184570312 c 0
 246.844726562 766.8671875 366.975585938 817.987304688 507.555664062 817.987304688 c 0
 648.135742188 817.987304688 765.711914062 766.8671875 865.395507812 667.184570312 c 0
 965.080078125 567.500976562 1013.64453125 449.924804688 1013.64453125 309.344726562 c 0
 1013.64453125 168.764648438 965.080078125 48.6318359375 865.395507812 -51.052734375 c 0
 765.711914062 -150.735351562 648.135742188 -201.85546875 507.555664062 -201.85546875 c 0
507.555664062 -201.85546875 m 1024
507.555664062 -94.50390625 m 0
 620.01953125 -94.50390625 714.591796875 -56.1640625 791.271484375 23.072265625 c 0
 867.951171875 102.307617188 906.291015625 196.880859375 906.291015625 309.344726562 c 0
 906.291015625 421.807617188 867.951171875 513.825195312 791.271484375 593.060546875 c 0
 714.591796875 672.295898438 620.01953125 710.635742188 507.555664062 710.635742188 c 0
 395.091796875 710.635742188 300.51953125 672.295898438 221.284179688 593.060546875 c 0
 142.048828125 513.825195312 103.708984375 421.807617188 103.708984375 309.344726562 c 0
 103.708984375 196.880859375 142.048828125 102.307617188 221.284179688 23.072265625 c 0
 300.51953125 -56.1640625 395.091796875 -94.50390625 507.555664062 -94.50390625 c 0
507.555664062 -94.50390625 m 1024
507.555664062 66.5244140625 m 0
 441.099609375 66.5244140625 384.868164062 92.0849609375 336.3046875 138.091796875 c 0
 287.740234375 184.100585938 262.1796875 242.887695312 262.1796875 309.344726562 c 0
 262.1796875 375.80078125 287.740234375 432.032226562 336.3046875 478.040039062 c 0
 384.868164062 524.047851562 441.099609375 549.607421875 507.555664062 549.607421875 c 0
 574.01171875 549.607421875 630.244140625 524.047851562 676.250976562 478.040039062 c 0
 722.259765625 432.032226562 747.8203125 375.80078125 747.8203125 309.344726562 c 0
 747.8203125 242.887695312 722.259765625 184.100585938 676.250976562 138.091796875 c 0
 630.244140625 92.0849609375 574.01171875 66.5244140625 507.555664062 66.5244140625 c 0
507.555664062 66.5244140625 m 1024
EndSplineSet
EndChar

StartChar: g
Encoding: 103 103 6
Width: 829
VWidth: 687
Flags: HW
HStem: 718 20G<113.25 284.25 367.56 412.95>
VStem: 117.75 166.5<0 738>
LayerCount: 3
Fore
SplineSet
-1.60546875 816.5625 m 1
 234.375 816.5625 l 1
 234.375 -201.876953125 l 1
 4.60546875 -201.876953125 l 1
 -1.60546875 816.5625 l 1
-1.60546875 816.5625 m 1024
385.485351562 771.022460938 m 1
 832.60546875 305.272460938 l 1
 385.485351562 -143.916992188 l 1
 288.1953125 -52.8369140625 l 1
 638.025390625 311.483398438 l 1
 271.634765625 684.083007812 l 1
 385.485351562 771.022460938 l 1
385.485351562 771.022460938 m 1024
EndSplineSet
EndChar

StartChar: h
Encoding: 104 104 7
Width: 518
VWidth: 683
Flags: HW
HStem: 334.667 453.75<32.5322 208.588 310.228 493.542>
VStem: 23.458 470.084<334.667 693.098> 32.5322 461.01<429.986 788.417> 208.588 101.64<0.708008 334.667>
LayerCount: 3
Fore
SplineSet
9.935546875 814.608398438 m 1xa0
 517.045898438 814.608398438 l 1xa0
 517.045898438 315.483398438 l 1xc0
 315.400390625 315.483398438 l 1
 315.400390625 -53.8681640625 l 1
 385.278320312 -53.8681640625 l 1
 261.494140625 -201.608398438 l 1
 139.708984375 -51.87109375 l 1
 203.596679688 -51.87109375 l 1
 203.596679688 315.483398438 l 1x90
 -0.0458984375 315.483398438 l 1xc0
 9.935546875 814.608398438 l 1xa0
9.935546875 814.608398438 m 1024
EndSplineSet
EndChar

StartChar: i
Encoding: 105 105 8
Width: 560
VWidth: 693
Flags: HW
HStem: 600.2 20G<138.613 423.4>
VStem: 54.4004 79.1992<341.2 620.2> 61.5996 77.4004<341.2 620.2>
LayerCount: 3
Fore
SplineSet
558.625 819.875 m 1xc0
 7.375 819.875 l 1xa0
 -1.625 277.625 l 1
 180.625 277.625 l 1
 180.625 261.875 178.375 223.625 176.125 162.875 c 0
 173.875 102.125 173.875 63.875 173.875 48.125 c 1
 70.375 48.125 l 1
 281.875 -212.875 l 1
 495.625 45.875 l 1
 378.625 45.875 l 1
 378.625 277.625 l 1
 558.625 277.625 l 1
 558.625 819.875 l 1xc0
279.625 374.375 m 1
 97.375 374.375 l 1xc0
 104.125 723.125 l 1
 459.625 723.125 l 1
 459.625 374.375 l 1
 281.875 374.375 l 1
 279.625 374.375 l 1
279.625 -50.875 m 1
 281.875 -53.125 l 1
 279.625 -53.125 l 1
 279.625 -50.875 l 1
56.875 770.375 m 1024
56.875 770.375 m 1024
EndSplineSet
EndChar

StartChar: j
Encoding: 106 106 9
Width: 712
VWidth: 688
Flags: HW
HStem: 692.6 21G<410.2 428.2> 703.4 41.3994<408.4 431.8>
VStem: 394 14.4004<697.37 703.4> 431.8 12.6006<698.077 703.4>
LayerCount: 3
Fore
SplineSet
13.9296875 359.479492188 m 1x30
 -1.9091796875 339.6796875 l 1
 407.950195312 30.7998046875 l 1
 510.909179688 -208.780273438 l 1
 532.690429688 -196.900390625 l 1
 429.729492188 46.640625 l 1
 13.9296875 359.479492188 l 1x30
413.890625 42.6796875 m 1
 439.629882812 42.6796875 l 1
 439.629882812 779.240234375 l 1
 413.890625 779.240234375 l 1x70
 413.890625 42.6796875 l 1
409.9296875 52.580078125 m 1
 427.75 32.7802734375 l 1
 708.909179688 296.120117188 l 1
 691.090820312 315.919921875 l 1
 409.9296875 52.580078125 l 1
425.770507812 767.359375 m 0xb0
 405.969726562 767.359375 398.049804688 775.280273438 398.049804688 795.080078125 c 0
 398.049804688 814.879882812 405.969726562 824.780273438 425.770507812 824.780273438 c 0x70
 445.5703125 824.780273438 453.490234375 814.879882812 453.490234375 795.080078125 c 0
 453.490234375 775.280273438 445.5703125 767.359375 425.770507812 767.359375 c 0xb0
425.770507812 767.359375 m 1024xb0
EndSplineSet
EndChar

StartChar: k
Encoding: 107 107 10
Width: 1046
VWidth: 616
Flags: HW
HStem: 212.08 228.48<274.34 770.66>
LayerCount: 3
Fore
SplineSet
-1.73828125 483.33203125 m 1
 1046.73828125 483.33203125 l 1
 1046.73828125 0.66796875 l 1
 -1.73828125 0.66796875 l 1
 -1.73828125 483.33203125 l 1
-1.73828125 483.33203125 m 1024
EndSplineSet
EndChar

StartChar: l
Encoding: 108 108 11
Width: 985
VWidth: 650
Flags: HW
HStem: 0 345<114.75 333.75 656.25 872.25> 544 20G<333.75 656.25> 544 20G<333.75 656.25>
VStem: 333.75 322.5<345 564>
LayerCount: 3
Fore
SplineSet
1.125 0.400390625 m 1xd0
 1.125 448.900390625 l 1
 285.825195312 448.900390625 l 1
 285.825195312 733.599609375 l 1
 705.075195312 733.599609375 l 1
 705.075195312 448.900390625 l 1
 985.875 448.900390625 l 1
 985.875 0.400390625 l 1
 1.125 0.400390625 l 1xd0
1.125 0.400390625 m 1024
EndSplineSet
EndChar

StartChar: m
Encoding: 109 109 12
Width: 710
VWidth: 688
Flags: HW
HStem: -66.7998 298.8<47.4004 659.4> 455 20G<290.724 307.659>
LayerCount: 3
Fore
SplineSet
390.794921875 815.219726562 m 1
 496.364257812 790.379882812 l 1
 374.235351562 560.610351562 l 1
 606.075195312 421.919921875 l 1
 405.28515625 299.7890625 l 1
 500.504882812 219.060546875 l 1
 245.89453125 179.73046875 l 1
 285.224609375 419.849609375 l 1
 343.185546875 334.98046875 l 1
 428.055664062 423.989257812 l 1
 276.944335938 523.349609375 l 1
 390.794921875 815.219726562 l 1
390.794921875 815.219726562 m 1024
1.6357421875 140.400390625 m 1
 705.435546875 140.400390625 l 1
 705.435546875 -203.219726562 l 1
 -0.435546875 -203.219726562 l 1
 1.6357421875 140.400390625 l 1
1.6357421875 140.400390625 m 1024
EndSplineSet
EndChar

StartChar: n
Encoding: 110 110 13
Width: 608
VWidth: 685
Flags: HW
LayerCount: 3
Fore
SplineSet
39.1298828125 -204.080078125 m 1
 266.830078125 397.83984375 l 1
 66.849609375 193.900390625 l 1
 -2.4501953125 259.240234375 l 1
 233.169921875 498.8203125 l 1
 -8.390625 750.280273438 l 1
 52.990234375 807.701171875 l 1
 306.4296875 566.140625 l 1
 542.049804688 803.740234375 l 1
 599.469726562 742.360351562 l 1
 367.809570312 502.780273438 l 1
 607.390625 259.240234375 l 1
 542.049804688 187.959960938 l 1
 344.049804688 389.919921875 l 1
 573.729492188 -204.080078125 l 1
 39.1298828125 -204.080078125 l 1
39.1298828125 -204.080078125 m 1024
EndSplineSet
EndChar

StartChar: o
Encoding: 111 111 14
Width: 1017
VWidth: 687
Flags: HW
HStem: 2.75 102<391.86 615.092> 110.75 4.5<466.808 540.189> 449.25 20G<494.5 512.5 522.823 562.1> 688.25 4.5<466.808 540.189> 697.25 93<391.86 615.092>
VStem: 115 91.5<289.578 513.39> 212.5 4.5<365.012 438.393> 790 4.5<365.012 438.393> 800.5 100.5<289.578 513.39>
LayerCount: 3
Fore
SplineSet
508 -203.185546875 m 0
 367.599609375 -203.185546875 246.700195312 -152.485351562 147.25 -53.03515625 c 0
 47.7998046875 46.4150390625 -2.900390625 169.264648438 -2.900390625 309.665039062 c 0
 -2.900390625 450.064453125 47.7998046875 570.96484375 147.25 670.415039062 c 0
 246.700195312 769.864257812 367.599609375 820.564453125 508 820.564453125 c 0
 648.400390625 820.564453125 769.299804688 769.864257812 868.75 670.415039062 c 0
 968.200195312 570.96484375 1018.90039062 450.064453125 1018.90039062 309.665039062 c 0
 1018.90039062 169.264648438 968.200195312 46.4150390625 868.75 -53.03515625 c 0
 769.299804688 -152.485351562 648.400390625 -203.185546875 508 -203.185546875 c 0
508 -203.185546875 m 1024
502.150390625 -56.935546875 m 0
 398.799804688 -56.935546875 313 -19.8857421875 238.900390625 52.2646484375 c 0
 164.799804688 124.415039062 129.700195312 212.165039062 129.700195312 315.514648438 c 0
 129.700195312 418.864257812 164.799804688 504.665039062 238.900390625 578.764648438 c 0
 313 652.864257812 398.799804688 687.96484375 502.150390625 687.96484375 c 0
 605.5 687.96484375 693.25 652.864257812 765.400390625 578.764648438 c 0
 837.549804688 504.665039062 874.599609375 418.864257812 874.599609375 315.514648438 c 0
 874.599609375 212.165039062 837.549804688 124.415039062 765.400390625 52.2646484375 c 0
 693.25 -19.8857421875 605.5 -56.935546875 502.150390625 -56.935546875 c 0
502.150390625 -70.5849609375 m 0
 607.450195312 -70.5849609375 697.150390625 -33.53515625 773.200195312 42.5146484375 c 0
 849.25 118.564453125 888.25 210.21484375 888.25 315.514648438 c 0
 888.25 420.814453125 849.25 510.514648438 773.200195312 586.564453125 c 0
 697.150390625 662.614257812 607.450195312 699.665039062 502.150390625 699.665039062 c 0
 396.849609375 699.665039062 307.150390625 662.614257812 231.099609375 586.564453125 c 0
 155.049804688 510.514648438 116.049804688 420.814453125 116.049804688 315.514648438 c 0
 116.049804688 210.21484375 155.049804688 118.564453125 231.099609375 42.5146484375 c 0
 307.150390625 -33.53515625 396.849609375 -70.5849609375 502.150390625 -70.5849609375 c 0
502.150390625 -62.78515625 m 1024
502.150390625 -62.78515625 m 1024
502.150390625 -62.78515625 m 0
 607.450195312 -62.78515625 695.200195312 -27.685546875 769.299804688 46.4150390625 c 0
 843.400390625 120.514648438 880.450195312 210.21484375 880.450195312 315.514648438 c 0
 880.450195312 420.814453125 843.400390625 508.564453125 769.299804688 582.665039062 c 0
 695.200195312 656.764648438 607.450195312 693.814453125 502.150390625 693.814453125 c 0
 396.849609375 693.814453125 307.150390625 656.764648438 233.049804688 582.665039062 c 0
 158.950195312 508.564453125 123.849609375 420.814453125 123.849609375 315.514648438 c 0
 123.849609375 210.21484375 158.950195312 120.514648438 233.049804688 46.4150390625 c 0
 307.150390625 -27.685546875 396.849609375 -62.78515625 502.150390625 -62.78515625 c 0
502.150390625 -62.78515625 m 1024
502.150390625 227.764648438 m 0
 478.75 227.764648438 457.299804688 235.564453125 439.75 253.114257812 c 0
 422.200195312 270.665039062 414.400390625 292.114257812 414.400390625 315.514648438 c 0
 414.400390625 338.915039062 422.200195312 358.415039062 439.75 375.96484375 c 0
 457.299804688 393.514648438 478.75 403.264648438 502.150390625 403.264648438 c 0
 525.549804688 403.264648438 547 393.514648438 564.549804688 375.96484375 c 0
 582.099609375 358.415039062 589.900390625 338.915039062 589.900390625 315.514648438 c 0
 589.900390625 292.114257812 582.099609375 270.665039062 564.549804688 253.114257812 c 0
 547 235.564453125 525.549804688 227.764648438 502.150390625 227.764648438 c 0
502.150390625 227.764648438 m 1024
433.900390625 268.71484375 m 1
 552.849609375 389.614257812 l 1
 839.5 97.1142578125 l 1
 743.950195312 -8.185546875 l 1
 433.900390625 268.71484375 l 1
433.900390625 268.71484375 m 1024
EndSplineSet
EndChar

StartChar: p
Encoding: 112 112 15
Width: 1207
VWidth: 617
Flags: HW
HStem: 412.8 165G<206 260 303.2 360.8 393.2 450.8 520.4 544.4 659.6 683.236 751.4 810.8 843.2 899 945.8 998> 560.2 20G<206 260 303.2 360.8 393.2 450.8 520.829 544.4 659.6 682.814 751.4 810.8 843.2 899 945.8 998>
VStem: 544.4 57.5996<279.9 301.2 690 706.029> 602 57.5996<279.9 301.2 690 706.029>
LayerCount: 3
Fore
SplineSet
14.66015625 476.549804688 m 2x60
 -1.720703125 448.470703125 l 1
 -1.720703125 284.670898438 l 1
 87.2001953125 284.670898438 l 1
 87.2001953125 392.310546875 l 1
 157.400390625 392.310546875 l 1
 157.400390625 284.670898438 l 1
 213.560546875 284.670898438 l 1
 213.560546875 389.970703125 l 1
 288.439453125 389.970703125 l 1
 288.439453125 284.670898438 l 1
 330.560546875 284.670898438 l 1
 330.560546875 392.310546875 l 1
 405.439453125 392.310546875 l 1
 405.439453125 284.670898438 l 1
 602 284.670898438 l 1
 602 565.470703125 l 1x50
 559.879882812 565.470703125 l 2
 552.860351562 565.470703125 543.5 560.790039062 536.479492188 556.110351562 c 0
 529.459960938 551.4296875 527.120117188 542.0703125 527.120117188 535.049804688 c 2
 527.120117188 361.889648438 l 1
 372.6796875 490.58984375 l 1
 45.0791015625 490.58984375 l 2
 31.0400390625 488.25 21.6796875 483.5703125 14.66015625 476.549804688 c 2x60
14.66015625 90.4501953125 m 1
 45.0791015625 76.41015625 l 1
 372.6796875 76.41015625 l 1
 527.120117188 207.450195312 l 1
 527.120117188 29.6103515625 l 2xa0
 527.120117188 22.58984375 529.459960938 15.5703125 536.479492188 10.8896484375 c 0
 543.5 6.2099609375 552.860351562 1.529296875 559.879882812 1.529296875 c 2
 602 1.529296875 l 1
 602 284.670898438 l 1
 405.439453125 284.670898438 l 1
 405.439453125 174.689453125 l 1
 330.560546875 174.689453125 l 1
 330.560546875 284.670898438 l 1
 288.439453125 284.670898438 l 1
 288.439453125 177.029296875 l 1
 213.560546875 177.029296875 l 1
 213.560546875 284.670898438 l 1
 157.400390625 284.670898438 l 1
 157.400390625 174.689453125 l 1
 87.2001953125 174.689453125 l 1x90
 87.2001953125 284.670898438 l 1
 -1.720703125 284.670898438 l 1
 -1.720703125 118.529296875 l 2
 0.6201171875 106.829101562 5.2998046875 97.470703125 14.66015625 90.4501953125 c 1
14.66015625 90.4501953125 m 1024
1189.33984375 476.549804688 m 2
 1158.92089844 490.58984375 l 1
 828.979492188 490.58984375 l 1
 676.879882812 361.889648438 l 1
 676.879882812 535.049804688 l 2
 676.879882812 542.0703125 674.540039062 551.4296875 667.520507812 556.110351562 c 0
 660.5 560.790039062 651.139648438 565.470703125 644.120117188 565.470703125 c 2
 602 565.470703125 l 1
 602 284.670898438 l 1
 796.220703125 284.670898438 l 1
 796.220703125 392.310546875 l 1
 873.439453125 392.310546875 l 1
 873.439453125 284.670898438 l 1
 915.560546875 284.670898438 l 1
 915.560546875 389.970703125 l 1
 988.099609375 389.970703125 l 1
 988.099609375 284.670898438 l 1
 1048.93945312 284.670898438 l 1
 1048.93945312 392.310546875 l 1
 1116.79980469 392.310546875 l 1x50
 1116.79980469 284.670898438 l 1
 1205.72070312 284.670898438 l 1
 1205.72070312 448.470703125 l 2
 1203.37988281 460.170898438 1198.70019531 469.529296875 1189.33984375 476.549804688 c 2
1189.33984375 90.4501953125 m 1
 1205.72070312 118.529296875 l 1
 1205.72070312 284.670898438 l 1
 1116.79980469 284.670898438 l 1
 1116.79980469 174.689453125 l 1
 1048.93945312 174.689453125 l 1
 1048.93945312 284.670898438 l 1
 988.099609375 284.670898438 l 1
 988.099609375 177.029296875 l 1
 915.560546875 177.029296875 l 1
 915.560546875 284.670898438 l 1
 873.439453125 284.670898438 l 1
 873.439453125 174.689453125 l 1
 796.220703125 174.689453125 l 1x90
 796.220703125 284.670898438 l 1
 602 284.670898438 l 1
 602 1.529296875 l 1
 644.120117188 1.529296875 l 2
 651.139648438 1.529296875 660.5 6.2099609375 667.520507812 10.8896484375 c 0
 674.540039062 15.5703125 676.879882812 22.58984375 676.879882812 29.6103515625 c 2
 676.879882812 207.450195312 l 1
 828.979492188 76.41015625 l 1
 1158.92089844 76.41015625 l 2
 1172.95996094 78.75 1182.3203125 83.4296875 1189.33984375 90.4501953125 c 1
1189.33984375 90.4501953125 m 1024
EndSplineSet
EndChar

StartChar: q
Encoding: 113 113 16
Width: 1040
VWidth: 661
Flags: HW
HStem: 591.2 20G<509.782 536.878>
LayerCount: 3
Fore
SplineSet
-3.25 61.0400390625 m 1
 0.7099609375 -2.3203125 l 1
 1036.25 1.640625 l 1
 1036.25 70.9404296875 l 1
 519.470703125 825.3203125 l 1
 -3.25 61.0400390625 l 1
305.629882812 342.200195312 m 1
 523.4296875 676.8203125 l 1
 772.909179688 322.400390625 l 1
 721.4296875 314.479492188 l 1
 608.5703125 441.200195312 l 1
 565.009765625 324.379882812 l 1
 469.970703125 480.799804688 l 1
 359.090820312 334.279296875 l 1
 305.629882812 342.200195312 l 1
305.629882812 342.200195312 m 1024
EndSplineSet
EndChar

StartChar: r
Encoding: 114 114 17
Width: 344
VWidth: 683
Flags: HW
VStem: 265 75.5996<135.2 612.2>
LayerCount: 3
Fore
SplineSet
16.275390625 815.154296875 m 5
 361.01171875 617.586914062 l 5
 361.01171875 -5.357421875 l 5
 20.30859375 -206.95703125 l 5
 -20.01171875 -140.4296875 l 5
 276.33984375 34.962890625 l 5
 276.33984375 569.202148438 l 5
 -20.01171875 738.546875 l 5
 16.275390625 815.154296875 l 5
16.275390625 815.154296875 m 1028
EndSplineSet
EndChar

StartChar: s
Encoding: 115 115 18
Width: 695
VWidth: 670
Flags: HW
HStem: 481.391 20G<430.806 448.914>
VStem: 287.58 67.3203<156.87 626.13>
LayerCount: 3
Fore
SplineSet
493.004882812 369.361328125 m 1
 559.038085938 442.225585938 l 1
 438.356445312 524.198242188 l 1
 615.962890625 806.545898438 l 1
 693.381835938 790.60546875 l 1
 518.051757812 542.412109375 l 1
 693.381835938 430.840820312 l 1
 531.712890625 330.653320312 l 1
 615.962890625 266.896484375 l 1
 415.586914062 237.295898438 l 1
 447.46484375 430.840820312 l 1
 493.004882812 369.361328125 l 1
35.328125 -208.997070312 m 1
 -3.3818359375 -138.409179688 l 1
 278.966796875 34.642578125 l 1
 278.966796875 574.291015625 l 1
 -3.3818359375 747.342773438 l 1
 35.328125 817.930664062 l 1
 356.385742188 619.831054688 l 1
 356.385742188 -10.8974609375 l 1
 35.328125 -208.997070312 l 1
EndSplineSet
EndChar

StartChar: t
Encoding: 116 116 19
Width: 433
VWidth: 671
Flags: HW
VStem: 188.75 43.5596<-51.0498 830.05> 321.409 79.2002<156.85 622.15>
LayerCount: 3
Fore
SplineSet
185.037109375 817.381835938 m 1
 235.130859375 817.381835938 l 1
 235.130859375 -195.881835938 l 1
 185.037109375 -195.881835938 l 1
 185.037109375 817.381835938 l 1
46.1416015625 -195.881835938 m 1
 -1.67578125 -127.573242188 l 1
 337.595703125 43.2021484375 l 1
 337.595703125 578.297851562 l 1
 -1.67578125 749.073242188 l 1
 46.1416015625 817.381835938 l 1
 428.67578125 623.837890625 l 1
 428.67578125 -0.0615234375 l 1
 46.1416015625 -195.881835938 l 1
46.1416015625 817.381835938 m 1
 96.2333984375 817.381835938 l 1
 96.2333984375 -195.881835938 l 1
 46.1416015625 -195.881835938 l 1
 46.1416015625 817.381835938 l 1
EndSplineSet
EndChar

StartChar: u
Encoding: 117 117 20
Width: 411
VWidth: 1843
Flags: HW
HStem: -0 34<4 325> 194 201<4 412>
LayerCount: 3
Fore
SplineSet
412 76 m 1
 4 76 l 1
 4 277 l 1
 412 277 l 1
 412 76 l 1
325 -118 m 1
 4 -118 l 1
 4 -84 l 1
 325 -84 l 1
 232 -24 l 1
 255 0 l 1
 409 -101 l 1
 255 -200 l 1
 232 -178 l 1
 325 -118 l 1
EndSplineSet
EndChar

StartChar: v
Encoding: 118 118 21
Width: 1421
VWidth: 1843
Flags: W
HStem: 1 34<807 1128> 193 200<804 920 1091 1212> 482 20G<920 1091>
VStem: 920 171<393 502>
LayerCount: 3
Fore
SplineSet
1128 1 m 5
 807 1 l 5
 807 35 l 5
 1128 35 l 5
 1035 95 l 5
 1058 119 l 5
 1212 18 l 5
 1058 -81 l 5
 1035 -59 l 5
 1128 1 l 5
920 502 m 5
 1091 502 l 5
 1091 393 l 5
 1212 393 l 5
 1212 193 l 5
 804 193 l 5
 804 393 l 5
 920 393 l 5
 920 502 l 5
EndSplineSet
Validated: 1
EndChar

StartChar: w
Encoding: 119 119 22
Width: 819
VWidth: 1843
Flags: W
HStem: 2 34<205 526> 190 200<202 610> 413 21G<346.358 495> 550 210G<362.642 383.143 422.235 490>
LayerCount: 3
Fore
SplineSet
610 190 m 5
 202 190 l 5
 202 390 l 5
 610 390 l 5
 610 190 l 5
526 2 m 5
 205 2 l 5
 205 36 l 5
 526 36 l 5
 433 95 l 5
 456 119 l 5
 610 19 l 5
 456 -80 l 5
 433 -58 l 5
 526 2 l 5
402 508 m 5
 452 560 l 5
 360 618 l 5
 431 780 l 5
 490 768 l 5
 422 630 l 5
 555 550 l 5
 431 478 l 5
 495 433 l 5
 343 413 l 5
 366 550 l 5
 402 508 l 5
EndSplineSet
Validated: 1
EndChar

StartChar: x
Encoding: 120 120 23
Width: 819
VWidth: 1843
Flags: W
HStem: 1 35<206 527> 412 21G<260.571 299.854 533 573> 561 192G<261.571 300.853 408.43 423.621 532.853 572.429>
LayerCount: 3
Fore
SplineSet
565 190 m 5
 416 190 l 5
 268 190 l 5
 416 581 l 5
 565 190 l 5
527 1 m 5
 206 1 l 5
 206 36 l 5
 527 36 l 5
 446 87 l 5
 457 119 l 5
 612 19 l 5
 457 -81 l 5
 446 -50 l 5
 527 1 l 5
553 753 m 5
 587 718 l 5
 451 583 l 5
 587 446 l 5
 553 412 l 5
 416 549 l 5
 280 412 l 5
 246 447 l 5
 382 583 l 5
 247 718 l 5
 281 753 l 5
 416 617 l 5
 553 753 l 5
EndSplineSet
Validated: 5
EndChar

StartChar: y
Encoding: 121 121 24
Width: 1126
VWidth: 1843
Flags: HW
HStem: 147 294<380.7 538.62>
LayerCount: 3
Fore
SplineSet
1082.75 0.25 m 1
 340.25 0.25 l 1
 333.5 0.25 l 1
 329 0.25 l 1
 320 0.25 l 2
 232.25 0.25 155.75 31.75 92.75 97 c 0
 29.75 162.25 -1.75 241 -1.75 331 c 0
 -1.75 423.25 29.75 499.75 95 565 c 0
 160.25 630.25 236.75 661.75 329 661.75 c 0
 403.25 661.75 470.75 641.5 527 598.75 c 1
 1116.5 76.75 l 1
 1127.75 45.25 l 1
 1123.25 36.25 l 1
 1105.25 7 l 1
 1082.75 0.25 l 1
EndSplineSet
EndChar

StartChar: z
Encoding: 122 122 25
Width: 1192
VWidth: 1843
Flags: HW
HStem: 1791.8 202.189<1037.06 1037.52>
VStem: 1036.62 0.213903<928.673 1259.2 1269.07 1283.86 1288.79 1573.69>
LayerCount: 3
Fore
SplineSet
-0.375 358.12890625 m 1
 -0.375 346.248046875 l 2
 -0.375 253.583984375 32.888671875 172.799804688 99.416015625 103.896484375 c 0
 165.944335938 34.9912109375 246.728515625 1.728515625 339.390625 1.728515625 c 2
 348.896484375 1.728515625 l 1
 353.6484375 1.728515625 l 1
 358.400390625 1.728515625 l 1
 1142.48046875 1.728515625 l 2
 1151.984375 1.728515625 1159.11132812 4.103515625 1166.24023438 8.85546875 c 0
 1182.87109375 15.984375 1192.375 30.240234375 1192.375 51.625 c 0
 1192.375 65.880859375 1187.625 75.384765625 1178.11914062 82.51171875 c 2
 555.609375 633.744140625 l 1
 493.831054688 678.888671875 424.928710938 700.271484375 348.896484375 700.271484375 c 0
 253.85546875 700.271484375 170.696289062 667.008789062 101.791015625 600.48046875 c 0
 32.888671875 533.952148438 -0.375 455.543945312 -0.375 360.50390625 c 1
 206.438476562 333.453125 l 1
 206.438476562 378.399414062 224.44140625 418.53125 258.813476562 452.241210938 c 0
 293.185546875 485.950195312 335.741210938 503.608398438 386.481445312 503.608398438 c 1
 437.221679688 495.58203125 l 2
 453.58984375 492.372070312 469.956054688 485.950195312 487.9609375 474.713867188 c 1
 834.955078125 174.534179688 l 1
 838.228515625 172.928710938 l 1
 841.502929688 168.112304688 l 1
 841.502929688 163.297851562 l 2
 841.502929688 158.481445312 839.866210938 155.271484375 834.955078125 153.666015625 c 2
 831.681640625 152.060546875 l 1
 375.024414062 152.060546875 l 1
 368.475585938 153.666015625 l 1
 322.647460938 158.481445312 283.365234375 176.138671875 252.266601562 209.849609375 c 0
 221.16796875 243.559570312 206.438476562 280.478515625 206.438476562 325.42578125 c 2
 206.438476562 331.848632812 l 1
 -0.375 358.12890625 l 1
EndSplineSet
EndChar

StartChar: A
Encoding: 65 65 26
Width: 1755
VWidth: 1843
Flags: W
HStem: 186 288<506.821 657.985> 275 132<763 879 931 1046> 507 20G<1257.11 1297.51>
VStem: 438 288<254.803 405.985> 763 116<275 407> 931 115<275 407>
LayerCount: 3
Fore
SplineSet
1046 275 m 1x7c
 931 275 l 1
 931 407 l 1
 1046 407 l 1
 1046 275 l 1x7c
879 275 m 1
 763 275 l 1
 763 407 l 1
 879 407 l 1
 879 275 l 1
1317 186 m 1xbc
 1277 147 l 1
 1088 337 l 1
 1277 527 l 1
 1317 488 l 1
 1166 337 l 1
 1317 186 l 1xbc
483 434 m 0
 495 446 510 456 528 463 c 0
 537 466 546 469 555 471 c 0
 564 473 573 474 582 474 c 0
 621 474 656 460 686 430 c 0
 698 418 708 402 715 384 c 0
 722 366 726 348 726 330 c 0
 726 291 712 257 682 227 c 0
 670 215 655 205 637 198 c 1
 610 190 l 2
 601 188 591 186 582 186 c 0
 543 186 509 201 479 231 c 0
 467 243 456 258 449 276 c 0
 442 294 438 312 438 330 c 0
 438 369 453 404 483 434 c 0
EndSplineSet
Validated: 1
EndChar

StartChar: B
Encoding: 66 66 27
Width: 1871
VWidth: 1843
Flags: W
HStem: 181 46<543.198 672.244 1192.46 1320.25> 261 133<791 906 959 1074> 424 44<546.481 667.542 1194.23 1315.19>
VStem: 467 43<278.73 387.686> 705 47<288 387.217> 791 115<261 394> 959 115<261 394> 1114 45<296 371> 1354 47<292.472 386.863>
LayerCount: 3
Fore
SplineSet
752 331 m 5
 752 315 l 5
 752 306 l 5
 750 299 l 5
 746 284 l 5
 744 277 l 5
 741 270 l 5
 736 256 l 6
 734 252 732 248 729 244 c 6
 724 236 l 5
 710 221 l 5
 681 195 647 181 609 181 c 4
 571 181 538 194 508 221 c 6
 501 228 l 5
 492 238 l 5
 485 251 l 5
 477 268 l 5
 469 296 l 5
 467 314 l 5
 466 325 l 6
 466 337 469 351 475 370 c 4
 481 389 491 408 506 427 c 5
 535 454 569 468 606 468 c 4
 641 468 674 454 705 427 c 4
 736 400 752 368 752 331 c 5
 727 331 l 5
 705 331 l 5
 705 355 696 376 676 395 c 4
 656 414 632 424 605 424 c 4
 579 424 557 414 538 395 c 4
 519 376 510 353 510 325 c 6
 510 316 l 5
 512 306 l 6
 512 299 514 291 518 283 c 6
 526 270 l 5
 539 253 l 5
 549 244 560 237 571 233 c 4
 582 229 594 227 608 227 c 4
 633 227 657 235 677 253 c 5
 698 288 l 5
 703 304 705 319 705 331 c 5
 752 331 l 5
1401 331 m 5
 1401 310 1397 289 1390 270 c 4
 1384 251 1373 235 1358 221 c 4
 1329 195 1295 181 1257 181 c 4
 1219 181 1186 194 1156 221 c 4
 1150 226 1140 242 1125 268 c 5
 1117 296 l 5
 1114 325 l 5
 1114 341 l 5
 1116 352 l 5
 1119 363 l 5
 1121 371 l 5
 1124 379 l 6
 1126 386 1137 402 1155 427 c 5
 1183 454 1216 468 1254 468 c 4
 1288 468 1321 454 1353 427 c 4
 1385 400 1401 368 1401 331 c 5
 1375 331 l 5
 1354 331 l 5
 1354 355 1344 376 1324 395 c 4
 1304 414 1280 424 1253 424 c 4
 1226 424 1204 414 1186 395 c 4
 1184 393 1177 382 1165 363 c 5
 1161 348 l 5
 1159 337 l 5
 1159 325 l 5
 1159 316 l 5
 1160 306 l 6
 1160 298 1162 291 1166 283 c 4
 1170 275 1177 265 1188 253 c 4
 1198 244 1209 237 1220 233 c 4
 1231 229 1243 227 1257 227 c 4
 1282 227 1305 235 1325 253 c 4
 1332 260 1340 272 1346 288 c 5
 1354 331 l 5
 1401 331 l 5
906 394 m 5
 906 261 l 5
 791 261 l 5
 791 394 l 5
 906 394 l 5
1074 394 m 5
 1074 261 l 5
 959 261 l 5
 959 394 l 5
 1074 394 l 5
EndSplineSet
Validated: 5
EndChar

StartChar: C
Encoding: 67 67 28
Width: 2023
VWidth: 1843
Flags: W
HStem: 176 45<663.686 789.191 1311.72 1390> 255 133<909 1024 1077 1192> 418 45<662.204 787.305 1310.02 1436.29>
VStem: 584 45<301 384.55> 824 46<255.53 381.217> 909 115<255 388> 1077 115<255 388> 1233 44<270.93 346> 1472 47<255.391 381.953>
LayerCount: 3
Fore
SplineSet
870 325 m 5
 867 294 l 6
 867 288 866 282 865 278 c 6
 859 264 l 6
 856 254 851 245 846 237 c 6
 828 215 l 5
 799 189 766 176 728 176 c 4
 690 176 657 189 627 216 c 4
 621 221 610 237 595 263 c 5
 587 291 l 5
 584 310 l 5
 584 320 l 6
 584 332 588 346 594 365 c 4
 600 384 610 403 625 422 c 5
 654 449 687 463 724 463 c 4
 759 463 792 448 823 421 c 4
 854 394 870 362 870 325 c 5
 845 325 l 5
 824 325 l 5
 824 349 814 371 794 390 c 4
 774 409 751 418 724 418 c 4
 697 418 674 409 656 390 c 4
 638 371 629 348 629 320 c 6
 629 311 l 5
 630 301 l 5
 631 292 l 6
 632 289 633 285 636 281 c 6
 644 265 l 5
 658 248 l 5
 668 239 679 232 690 228 c 4
 701 224 713 221 727 221 c 4
 752 221 775 230 795 248 c 4
 803 255 809 267 815 283 c 4
 821 299 824 313 824 325 c 5
 870 325 l 5
1519 325 m 5
 1519 304 1515 284 1508 265 c 4
 1502 246 1491 229 1477 216 c 4
 1463 203 1446 192 1428 186 c 6
 1414 182 l 5
 1400 178 l 5
 1390 177 l 5
 1376 176 l 5
 1338 176 1305 189 1275 216 c 4
 1269 220 1258 236 1243 263 c 5
 1235 291 l 5
 1233 320 l 5
 1233 332 l 5
 1235 346 l 5
 1237 359 l 6
 1238 364 1240 370 1243 374 c 4
 1245 381 1255 397 1273 422 c 5
 1301 449 1335 463 1373 463 c 4
 1412 463 1447 449 1476 421 c 4
 1505 393 1519 361 1519 325 c 5
 1493 325 l 5
 1472 325 l 5
 1472 349 1463 371 1443 390 c 4
 1423 409 1400 418 1372 418 c 4
 1345 418 1322 409 1304 390 c 4
 1286 371 1277 347 1277 320 c 6
 1277 311 l 5
 1278 301 l 6
 1279 296 1281 288 1285 278 c 4
 1289 269 1296 259 1306 248 c 5
 1316 239 1327 232 1338 228 c 4
 1349 224 1361 221 1375 221 c 4
 1399 221 1423 230 1444 248 c 4
 1450 253 1455 264 1462 283 c 4
 1469 302 1472 315 1472 325 c 5
 1519 325 l 5
564 132 m 5
 564 508 l 5
 510 508 l 5
 510 132 l 5
 564 132 l 5
1024 388 m 5
 1024 255 l 5
 909 255 l 5
 909 388 l 5
 1024 388 l 5
1192 388 m 5
 1192 255 l 5
 1077 255 l 5
 1077 388 l 5
 1192 388 l 5
EndSplineSet
Validated: 5
EndChar

StartChar: grave
Encoding: 96 96 29
Width: 295
VWidth: 1843
Flags: W
HStem: 39 60<80 217> 293 59<80 216> 443 20G<0 69 228 296>
VStem: 0 69<-72 39 110 281 352 463> 228 68<-72 39 110 281 352 463>
LayerCount: 3
Fore
SplineSet
69 39 m 1
 69 -72 l 1
 0 -72 l 1
 0 463 l 1
 69 463 l 1
 69 352 l 1
 228 352 l 1
 228 463 l 1
 296 463 l 1
 296 -72 l 1
 228 -72 l 1
 228 39 l 1
 69 39 l 1
216 293 m 1
 80 293 l 1
 228 110 l 1
 228 281 l 1
 80 99 l 1
 217 99 l 1
 69 281 l 1
 69 110 l 1
 216 293 l 1
EndSplineSet
Validated: 5
EndChar

StartChar: D
Encoding: 68 68 30
Width: 746
VWidth: 1843
Flags: W
HStem: 97 80<187 289 454 559> 618 79<187 289 454 559>
VStem: 289 165<177 618>
LayerCount: 3
Fore
SplineSet
289 177 m 1
 289 618 l 1
 187 618 l 1
 187 697 l 1
 559 697 l 1
 559 618 l 1
 454 618 l 1
 454 177 l 1
 559 177 l 1
 559 97 l 1
 187 97 l 1
 187 177 l 1
 289 177 l 1
EndSplineSet
Validated: 1
EndChar

StartChar: E
Encoding: 69 69 31
Width: 846
VWidth: 1843
Flags: W
HStem: 104 56<522 634> 351 55<522 634>
LayerCount: 3
Fore
SplineSet
634 406 m 1
 634 351 l 1
 522 351 l 1
 522 160 l 1
 634 160 l 1
 634 104 l 1
 211 104 l 1
 211 406 l 1
 634 406 l 1
EndSplineSet
Validated: 1
EndChar

StartChar: F
Encoding: 70 70 32
Width: 390
VWidth: 1843
Flags: W
HStem: 95 45<156.516 192 200 234.484> 249 40<157.517 192 200 236.847> 292 43<156.516 192 200 237.846> 445 43<152.245 194 200 237.83> 489 44<155.517 192 200 239.145> 642 42<157.517 192 200 237.83>
VStem: 99 41<154.49 234.975 349.519 431.737 546.02 627.919> 192 4<95 140 292 335 489 533> 196 4<96 140 294 335 490 533> 250 42<153.708 237.629 347.536 433.909 545.039 630.633>
LayerCount: 3
Fore
SplineSet
194 445 m 1xff40
 181 445 168 439 157 429 c 0
 146 419 140 406 140 391 c 0
 140 375 145 362 156 351 c 0
 167 340 179 335 194 335 c 1
 192 292 l 1
 169 292 147 303 127 323 c 1
 108 344 99 367 99 393 c 0
 99 415 108 437 126 457 c 0
 144 477 167 488 192 488 c 1
 194 445 l 1xff40
200 488 m 1xfec0
 224 488 245 479 264 460 c 0
 283 441 292 418 292 390 c 0
 292 365 284 343 266 323 c 0
 248 303 226 294 200 294 c 1
 198 335 l 1
 211 335 223 341 234 352 c 0
 245 363 250 375 250 390 c 0
 250 404 245 417 235 428 c 0
 226 439 213 445 198 445 c 1
 200 485 l 1
 200 488 l 1xfec0
192 292 m 1xff40
 196 292 l 1
 196 335 l 1
 192 292 l 1xff40
200 294 m 1xfec0
 197 292 l 1
 196 335 l 1xff40
 200 294 l 1xfec0
194 445 m 1
 196 488 l 1xfec0
 194 445 l 1
198 445 m 1
 197 488 l 1
 198 445 l 1
194 642 m 1
 181 642 168 637 157 627 c 0
 146 617 140 604 140 589 c 0
 140 573 145 559 155 548 c 0
 166 537 179 533 194 533 c 1
 192 489 l 1
 169 489 147 499 127 519 c 1
 108 540 99 563 99 589 c 0
 99 606 108 626 126 649 c 0
 144 672 167 684 192 684 c 1xff40
 194 642 l 1
200 684 m 1xfec0
 224 684 245 675 264 655 c 0
 283 635 292 612 292 586 c 0
 292 562 283 540 265 520 c 0
 247 500 225 490 200 490 c 1
 198 533 l 1
 211 533 223 538 234 549 c 0
 245 560 250 572 250 587 c 0
 250 601 245 614 235 625 c 0
 226 636 213 642 198 642 c 1
 200 681 l 1
 200 684 l 1xfec0
192 489 m 1xff40
 196 489 l 1
 196 533 l 1
 192 489 l 1xff40
200 490 m 1xfec0
 197 489 l 1
 196 533 l 1xff40
 200 490 l 1xfec0
194 642 m 1
 196 684 l 1xfec0
 194 642 l 1
198 642 m 1
 197 684 l 1
 198 642 l 1
194 249 m 1
 181 249 168 244 157 234 c 0
 146 224 140 211 140 196 c 0
 140 180 145 167 156 156 c 0
 167 145 179 140 194 140 c 1
 192 95 l 1
 165 95 143 104 125 124 c 0
 107 144 98 168 98 195 c 0
 98 219 107 241 125 260 c 0
 143 279 166 289 192 289 c 1xff40
 194 249 l 1
200 289 m 1xfec0
 224 289 245 280 264 261 c 0
 283 242 292 220 292 192 c 0
 292 184 290 173 286 160 c 0
 282 147 276 134 266 124 c 0
 248 105 226 96 200 96 c 1
 198 140 l 1
 212 140 224 145 235 156 c 0
 245 167 250 180 250 194 c 0
 250 208 245 221 235 232 c 0
 226 243 213 249 198 249 c 1
 200 286 l 1
 200 289 l 1xfec0
192 95 m 1xff40
 195 95 l 1
 196 140 l 1
 192 95 l 1xff40
200 96 m 1xfec0
 197 95 l 1
 197 140 l 1
 200 96 l 1xfec0
194 249 m 1
 195 289 l 1
 194 249 l 1
198 249 m 1
 197 289 l 1
 198 249 l 1
EndSplineSet
Validated: 5
EndChar

StartChar: G
Encoding: 71 71 33
Width: 295
VWidth: 1843
Flags: HW
LayerCount: 3
Fore
SplineSet
127.5 547 m 1
 295.5 626.200195312 l 1
 127.5 710.200195312 l 1
 295.5 793 l 1
 207.900390625 820.599609375 l 1
 -0.900390625 712.599609375 l 1
 158.700195312 629.799804688 l 1
 -0.900390625 549.400390625 l 1
 158.700195312 466.599609375 l 1
 -0.900390625 383.799804688 l 1
 158.700195312 302.200195312 l 1
 -0.900390625 220.599609375 l 1
 158.700195312 137.799804688 l 1
 -0.900390625 56.2001953125 l 1
 207.900390625 -50.599609375 l 1
 295.5 -30.2001953125 l 1
 127.5 53.7998046875 l 1
 297.900390625 134.200195312 l 1
 127.5 218.200195312 l 1
 295.5 297.400390625 l 1
 127.5 381.400390625 l 1
 295.5 461.799804688 l 1
 127.5 547 l 1
EndSplineSet
EndChar

StartChar: H
Encoding: 72 72 34
Width: 831
VWidth: 1843
Flags: W
HStem: 180 68<568 623> 570 69<568 623> 619 20G<509 623>
VStem: 509 114<180 248 570 639> 509 59<248 570>
LayerCount: 3
Fore
SplineSet
210 180 m 1xc0
 325 180 l 1
 325 639 l 1
 210 639 l 1xa0
 210 570 l 1
 265 570 l 1
 265 248 l 1
 210 248 l 1
 210 180 l 1xc0
623 180 m 1xd0
 509 180 l 1
 509 639 l 1xb0
 623 639 l 1
 623 570 l 1xd0
 568 570 l 1
 568 248 l 1xc8
 623 248 l 1
 623 180 l 1xd0
EndSplineSet
Validated: 9
EndChar

StartChar: I
Encoding: 73 73 35
Width: 831
VWidth: 1843
Flags: W
HStem: 306 85<265 325 509 568> 426 86<265 325 509 568> 544 95<509 568> 570 69<568 623>
VStem: 265 60<306 391 426 512> 509 114<570 639> 509 59<306 391 426 512 544 570>
LayerCount: 3
Fore
SplineSet
265 391 m 1xc8
 325 391 l 1
 325 306 l 1
 265 306 l 1
 265 391 l 1xc8
568 273 m 1xca
 509 273 l 1
 568 273 l 1xca
325 544 m 1xe8
 325 639 l 1
 210 639 l 1
 210 570 l 1
 265 570 l 1xd8
 265 544 l 1
 325 544 l 1xe8
325 273 m 1
 265 273 l 1
 265 248 l 1
 210 248 l 1
 210 180 l 1
 325 180 l 1
 325 273 l 1
509 544 m 1xea
 509 639 l 1xec
 623 639 l 1
 623 570 l 1xdc
 568 570 l 1xda
 568 544 l 1
 509 544 l 1xea
509 273 m 1xca
 509 180 l 1xca
 623 180 l 1
 623 248 l 1xcc
 568 248 l 1
 568 273 l 1
 509 273 l 1xca
265 512 m 1
 325 512 l 1
 325 426 l 1
 265 426 l 1
 265 512 l 1
509 391 m 1
 568 391 l 1
 568 306 l 1
 509 306 l 1
 509 391 l 1
509 512 m 1
 568 512 l 1
 568 426 l 1
 509 426 l 1
 509 512 l 1
EndSplineSet
Validated: 5
EndChar

StartChar: J
Encoding: 74 74 36
Width: 923
VWidth: 1843
Flags: W
HStem: 181 14<461 517.895> 388 21G<232 461 677 692> 400 21G<678 692> 410 233<461 565.732> 411 7<232 247> 629 14<407.848 461>
VStem: 232 15<418 470.001> 678 14<389 408>
LayerCount: 3
Fore
SplineSet
232 418 m 1x8b
 232 411 l 1
 247 411 l 1
 247 418 l 1
 232 418 l 1x8b
678 400 m 1xa3
 678 408 l 1
 692 408 l 1
 692 400 l 1
 678 400 l 1xa3
461 629 m 1x87
 461 643 l 1
 470 643 l 2
 529 643 582 621 626 578 c 0
 670 535 692 483 692 423 c 2
 692 419 l 1
 692 410 l 1
 678 410 l 1
 461 410 l 1x93
 461 629 l 1
 405 629 355 608 312 567 c 0
 269 526 247 476 247 418 c 1
 239 417 l 1
 233 418 l 1x8f
 233 478 255 531 300 576 c 0
 345 621 398 643 461 643 c 1x93
 461 629 l 1x87
232 409 m 1xc3
 247 409 l 1
 461 409 l 1xc3
 461 195 l 1
 467 195 l 2
 521 195 568 213 608 251 c 0
 648 289 671 334 677 389 c 2
 678 400 l 1
 686 400 l 1
 692 400 l 1xa3
 692 340 669 288 623 245 c 0
 618 240 595 224 552 198 c 1
 540 193 525 189 510 186 c 0
 495 183 479 181 464 181 c 2
 457 181 l 2
 403 181 354 200 313 238 c 0
 272 276 246 326 233 389 c 1
 232 399 l 1
 232 409 l 1xc3
EndSplineSet
Validated: 5
EndChar

StartChar: K
Encoding: 75 75 37
Width: 819
VWidth: 1843
Flags: W
HStem: 152 65<333.664 430> 330 61<232 272 273 544 548 589> 496 64<331.617 484.165>
VStem: 208 23<375 390.917> 231 41<330 391> 548 41<364 391>
LayerCount: 3
Fore
SplineSet
614 364 m 1xec
 614 334 610 306 599 279 c 0
 591 257 575 233 554 209 c 1
 536 193 513 179 488 168 c 1
 471 162 l 1
 447 156 l 1
 430 153 l 1
 411 152 l 1
 358 152 311 171 269 210 c 2
 256 222 l 1
 243 239 l 2
 236 250 229 263 223 276 c 1
 212 315 l 1
 208 357 l 1
 208 375 l 2xf4
 208 382 209 389 211 393 c 2
 213 404 l 1
 215 413 l 1
 219 423 l 1
 219 426 l 1
 223 433 l 1
 226 443 l 1
 230 452 l 2
 232 457 236 463 241 469 c 2
 245 477 l 1
 252 486 l 1
 266 502 l 1
 306 540 354 560 407 560 c 0
 464 560 512 539 553 500 c 0
 594 461 614 415 614 364 c 1
 578 364 l 1
 548 364 l 1
 548 399 533 429 506 456 c 0
 479 483 446 496 406 496 c 0
 369 496 337 483 311 456 c 0
 285 429 272 396 272 357 c 2
 272 344 l 1
 273 330 l 1
 276 319 l 1
 282 302 l 2
 287 291 297 275 312 255 c 1
 341 230 375 217 411 217 c 0
 446 217 478 230 507 255 c 0
 518 264 528 281 535 304 c 2
 544 335 l 1
 547 350 l 1
 548 364 l 1
 614 364 l 1xec
589 330 m 1
 231 330 l 1xec
 232 391 l 1
 589 391 l 1
 589 330 l 1
EndSplineSet
Validated: 5
EndChar

StartChar: L
Encoding: 76 76 38
Width: 1673
VWidth: 1843
Flags: W
HStem: 144 69<418 650 958 1119>
LayerCount: 3
Fore
SplineSet
418 144 m 1
 418 213 l 1
 650 213 l 1
 664 240 l 1
 677 266 l 1
 693 292 l 1
 711 311 l 1
 730 324 l 1
 749 335 l 1
 777 343 l 1
 802 345 l 1
 827 343 l 1
 847 338 l 1
 870 327 l 1
 887 316 l 1
 903 302 l 1
 917 286 l 1
 927 269 l 1
 937 248 l 1
 947 228 l 1
 958 213 l 1
 1119 213 l 1
 1119 144 l 1
 947 144 l 1
 918 200 l 2
 910 215 899 229 884 242 c 1
 865 254 l 1
 844 265 l 1
 823 271 l 1
 802 272 l 1
 780 271 l 2
 775 271 770 269 765 266 c 2
 744 257 l 1
 728 246 l 2
 720 242 705 223 684 188 c 1
 676 168 l 1
 662 144 l 1
 418 144 l 1
1119 277 m 1
 1119 80 l 1
 1253 176 l 1
 1119 277 l 1
EndSplineSet
Validated: 5
EndChar

StartChar: M
Encoding: 77 77 39
Width: 1536
VWidth: 1843
Flags: W
HStem: 502 21G<454 676 734.478 1080>
LayerCount: 3
Fore
SplineSet
750 321 m 1
 401 321 l 1
 385 321 l 1
 385 275 l 1
 385 162 l 1
 454 162 l 1
 454 252 l 1
 676 252 l 1
 657 236 l 1
 657 162 l 1
 754 252 l 1
 1081 252 l 1
 1081 162 l 1
 1150 162 l 1
 1150 274 l 1
 1150 321 l 1
 1135 321 l 1
 828 321 l 1
 889 378 l 1
 829 433 l 1
 1150 433 l 1
 1150 594 l 1
 1080 594 l 1
 1080 502 l 1
 756 502 l 1
 657 594 l 1
 657 520 l 1
 676 502 l 1
 454 502 l 1
 454 594 l 1
 385 594 l 1
 385 433 l 1
 750 433 l 1
 810 378 l 1
 750 321 l 1
EndSplineSet
Validated: 9
EndChar

StartChar: N
Encoding: 78 78 40
Width: 1536
VWidth: 1843
Flags: W
HStem: 168 160<385 454 1081 1150> 260 68<454 479 540 656 879 996 1052 1081> 439 161<385 454 1081 1150> 439 68<454 479 541 657 880 997 1053 1081>
VStem: 385 94<260 328 439 507> 385 69<168 260 507 600> 540 116<260 328 439 507> 711 116<296 329 439 473> 879 117<260 328 439 507> 1053 97<261 328 439 508> 1081 69<168 261 508 601>
LayerCount: 3
Fore
SplineSet
1150 439 m 1x23c0
 1135 439 l 1x23c0
 1053 439 l 1
 1053 508 l 1x13c0
 1081 508 l 1
 1081 601 l 1
 1150 601 l 1x13a0
 1150 439 l 1x23c0
997 439 m 1x1380
 880 439 l 1
 880 507 l 1
 997 507 l 1
 997 439 l 1x1380
1150 168 m 1x83a0
 1081 168 l 1x83a0
 1081 261 l 1
 1052 261 l 1
 1052 328 l 1x43a0
 1150 328 l 1x83c0
 1150 168 l 1x83a0
996 260 m 1x4380
 879 260 l 1
 879 328 l 1
 996 328 l 1
 996 260 l 1x4380
657 439 m 1x1380
 541 439 l 1
 541 507 l 1
 657 507 l 1
 657 439 l 1x1380
479 439 m 1x1b80
 385 439 l 1
 385 506 l 1x2b80
 385 600 l 1
 454 600 l 1x2780
 454 507 l 1x1780
 479 507 l 1
 479 439 l 1x1b80
656 260 m 1x4380
 540 260 l 1
 540 328 l 1
 656 328 l 1
 656 260 l 1x4380
479 260 m 1x4b80
 454 260 l 1x4780
 454 168 l 1
 385 168 l 1x8780
 385 262 l 1
 385 328 l 1
 401 328 l 1x8b80
 479 328 l 1
 479 260 l 1x4b80
1053 439 m 1x13c0
 1053 508 l 1
 1053 439 l 1x13c0
479 260 m 1x4b80
 454 260 l 1x4780
 479 260 l 1
 479 328 l 1x4b80
 401 328 l 1x8b80
 479 328 l 1
 479 260 l 1x4b80
885 384 m 1
 827 329 l 1
 827 261 l 1
 753 261 l 1
 653 168 l 1
 653 242 l 1
 711 296 l 1
 711 329 l 1
 747 329 l 1
 806 384 l 1
 747 439 l 1
 711 439 l 1x9380
 711 473 l 1
 653 527 l 1
 653 600 l 1x2380
 753 507 l 1
 827 507 l 1
 827 439 l 1x1380
 885 384 l 1
EndSplineSet
Validated: 5
EndChar

StartChar: O
Encoding: 79 79 41
Width: 1536
VWidth: 1843
Flags: W
HStem: 409 20G<752 860.429> 498 21G<454 599 657.462 764 822.462 1080>
LayerCount: 3
Fore
SplineSet
746 589 m 1
 746 515 l 1
 764 498 l 1
 679 498 l 1
 581 589 l 1
 581 515 l 1
 599 498 l 1
 454 498 l 1
 454 590 l 1
 385 590 l 1
 385 429 l 1
 673 429 l 1
 734 373 l 1
 673 316 l 1
 401 316 l 1
 385 316 l 1
 385 270 l 1
 385 159 l 1
 454 159 l 1
 454 248 l 1
 599 248 l 1
 581 231 l 1
 581 157 l 1
 679 248 l 1
 764 248 l 1
 746 231 l 1
 746 157 l 1
 844 248 l 1
 1081 248 l 1
 1081 159 l 1
 1150 159 l 1
 1150 270 l 1
 1150 316 l 1
 1135 316 l 1
 1045 316 l 1
 917 316 l 1
 977 373 l 1
 917 429 l 1
 1150 429 l 1
 1150 590 l 1
 1080 590 l 1
 1080 498 l 1
 844 498 l 1
 746 589 l 1
899 373 m 1
 838 316 l 1
 751 316 l 1
 812 373 l 1
 752 429 l 1
 839 429 l 1
 899 373 l 1
EndSplineSet
Validated: 9
EndChar

StartChar: P
Encoding: 80 80 42
Width: 1536
VWidth: 1843
Flags: W
HStem: 164 161<385 454 1081 1150> 256 69<454 557 709 828 984 1081> 438 160<385 454 1080 1150> 438 69<454 557 709 828 982 1080>
VStem: 385 69<164 256 507 598> 1081 69<164 256 507 598>
LayerCount: 3
Fore
SplineSet
908 507 m 1x1c
 1080 507 l 1x1c
 1080 598 l 1
 1150 598 l 1
 1150 438 l 1x2c
 982 438 l 1
 1043 382 l 1
 984 325 l 1x5c
 1150 325 l 1
 1150 164 l 1
 1081 164 l 1x8c
 1081 256 l 1
 911 256 l 1
 811 165 l 1
 811 239 l 1
 828 256 l 1
 709 256 l 1
 727 239 l 1
 727 165 l 1
 630 256 l 1
 454 256 l 1x4c
 454 164 l 1
 385 164 l 1
 385 325 l 1x8c
 557 325 l 1
 496 382 l 1
 557 438 l 1x5c
 385 438 l 1
 385 598 l 1
 454 598 l 1x2c
 454 507 l 1
 632 507 l 1x1c
 727 598 l 1x2c
 727 524 l 1
 709 507 l 1
 828 507 l 1x1c
 811 524 l 1
 811 598 l 1x2c
 908 507 l 1x1c
903 438 m 1
 636 438 l 1
 574 382 l 1
 636 325 l 1
 903 325 l 1x5c
 964 382 l 1
 903 438 l 1
EndSplineSet
Validated: 1
EndChar

StartChar: Q
Encoding: 81 81 43
Width: 461
VWidth: 1843
Flags: W
HStem: 500 20G<136.487 176.895>
VStem: 117 229
LayerCount: 3
Fore
SplineSet
346 330 m 1
 157 140 l 1
 117 179 l 1
 268 330 l 1
 117 481 l 1
 157 520 l 1
 346 330 l 1
EndSplineSet
Validated: 1
EndChar

StartChar: R
Encoding: 82 82 44
Width: 352
VWidth: 1843
Flags: W
HStem: 500 20G<80 119.791>
LayerCount: 3
Fore
SplineSet
44 117 m 1
 44 542 l 1
 -53 542 l 1
 -53 117 l 1
 44 117 l 1
289 329 m 1
 100 139 l 1
 60 179 l 1
 211 329 l 1
 60 480 l 1
 100 520 l 1
 289 329 l 1
EndSplineSet
Validated: 9
EndChar

StartChar: S
Encoding: 83 83 45
Width: 669
VWidth: 1843
Flags: W
HStem: 60 53<268.487 403.647> 340 51<269.482 402.88>
VStem: 173 51<205 294.19> 449 54<156.637 295.157>
LayerCount: 3
Fore
SplineSet
503 233 m 5
 503 208 498 184 490 163 c 5
 483 140 471 121 454 106 c 4
 437 91 420 80 400 72 c 4
 380 64 359 60 338 60 c 4
 294 60 256 76 222 107 c 4
 207 121 194 139 185 161 c 5
 176 193 l 5
 173 227 l 5
 173 242 l 5
 173 250 l 5
 175 263 l 6
 175 268 177 272 179 275 c 6
 184 289 l 6
 187 299 193 308 199 318 c 6
 208 332 l 5
 220 344 l 5
 253 375 290 391 334 391 c 4
 381 391 421 375 454 343 c 4
 487 311 503 275 503 233 c 5
 474 233 l 5
 449 233 l 5
 449 262 438 287 415 308 c 4
 392 329 365 340 333 340 c 4
 303 340 279 329 257 307 c 4
 235 285 224 259 224 227 c 6
 224 216 l 5
 226 205 l 5
 227 195 l 5
 232 182 l 6
 237 167 246 154 258 143 c 4
 281 123 307 113 337 113 c 4
 360 113 386 123 416 143 c 5
 425 151 432 164 439 183 c 4
 446 202 449 219 449 233 c 5
 503 233 l 5
EndSplineSet
Validated: 5
EndChar

StartChar: T
Encoding: 84 84 46
Width: 657
VWidth: 1843
Flags: W
HStem: 45 53<215.047 348.046> 325 51<214.072 348.88>
VStem: 119 51<190 280.098> 395 54<141.637 280.157>
LayerCount: 3
Fore
SplineSet
449 218 m 5
 449 193 444 169 436 148 c 5
 429 125 417 106 400 91 c 4
 383 76 366 65 346 57 c 4
 326 49 305 45 284 45 c 4
 240 45 202 61 168 92 c 4
 153 106 140 124 131 146 c 5
 122 178 l 5
 119 197 l 5
 119 212 l 6
 119 230 119 239 121 242 c 6
 130 274 l 6
 133 284 139 294 145 304 c 6
 154 317 l 5
 166 330 l 5
 199 361 236 376 280 376 c 4
 327 376 367 360 400 328 c 4
 433 296 449 260 449 218 c 5
 420 218 l 5
 395 218 l 5
 395 247 384 272 361 293 c 4
 338 314 311 325 279 325 c 4
 249 325 225 315 203 293 c 4
 181 271 170 244 170 212 c 6
 170 201 l 5
 172 190 l 5
 173 181 l 5
 178 167 l 6
 183 152 192 140 204 129 c 4
 227 109 253 98 283 98 c 4
 306 98 332 109 362 129 c 5
 371 137 378 149 385 168 c 4
 392 187 395 204 395 218 c 5
 449 218 l 5
96 1 m 5
 96 426 l 5
 -1 426 l 5
 -1 1 l 5
 96 1 l 5
EndSplineSet
Validated: 5
EndChar

StartChar: U
Encoding: 85 85 47
Width: 1536
VWidth: 1843
Flags: W
HStem: 696 20G<38 113>
VStem: 38 75<104 716>
LayerCount: 3
Fore
SplineSet
38 716 m 1
 113 716 l 1
 113 104 l 1
 38 104 l 1
 38 716 l 1
EndSplineSet
Validated: 1
EndChar

StartChar: V
Encoding: 86 86 48
Width: 1222
VWidth: 1843
Flags: W
HStem: 100 67<407.222 522.029 713.824 829.6> 244 6<313 373.032 619 620> 249 3<550 616> 251 3<619 688 857 923> 339 65<407.263 522.723 717.506 829.847>
VStem: 313 67<194.494 248 257 311.875> 550 66<195.901 245 257 311.051> 620 68<192.484 244 257 310.177> 857 66<194.302 245 257 311.492>
LayerCount: 3
Fore
SplineSet
550 255 m 1x8f80
 550 277 542 297 526 314 c 0
 510 331 490 339 468 339 c 0
 445 339 424 331 406 316 c 0
 388 301 380 280 380 256 c 1
 313 257 l 1
 313 296 328 330 359 360 c 0
 390 390 426 404 468 404 c 0
 508 404 543 390 572 362 c 0
 601 334 616 298 616 257 c 1
 550 255 l 1x8f80
616 245 m 1
 616 207 601 173 570 144 c 0
 539 115 503 100 464 100 c 0
 424 100 389 114 359 143 c 0
 329 172 313 205 313 244 c 1xcf80
 380 248 l 1
 380 227 388 208 405 191 c 0
 423 175 443 167 465 167 c 0
 487 167 507 175 524 191 c 0
 541 207 550 227 550 248 c 1
 612 245 l 1
 616 245 l 1
313 257 m 1
 313 252 l 1
 380 252 l 1xaf80
 313 257 l 1
313 244 m 1xcf80
 313 250 l 1xcf80
 380 252 l 1xaf80
 313 244 l 1xcf80
550 255 m 1
 550 252 l 1
 616 252 l 1xaf80
 550 255 l 1
550 249 m 1
 550 252 l 1xaf80
 616 250 l 1xcf80
 550 249 l 1
857 254 m 1x9f80
 857 276 850 296 834 313 c 0
 818 330 799 338 775 338 c 0
 753 338 732 330 714 314 c 0
 696 298 688 278 688 255 c 1
 619 257 l 1
 619 296 634 330 665 360 c 0
 696 390 733 404 775 404 c 0
 813 404 848 390 878 361 c 0
 908 332 923 297 923 257 c 1
 857 254 l 1x9f80
923 245 m 1
 923 207 908 173 878 144 c 0
 848 115 813 100 771 100 c 0
 737 100 703 113 670 141 c 0
 637 169 620 203 620 244 c 1xcf80
 688 246 l 1
 688 225 696 206 713 189 c 0
 731 173 750 165 772 165 c 0
 794 165 814 174 831 190 c 0
 848 206 857 225 857 246 c 1
 919 245 l 1
 923 245 l 1
619 257 m 1
 619 252 l 1xaf80
 688 251 l 1x9f80
 619 257 l 1
620 244 m 1xcf80
 619 250 l 1
 688 250 l 1
 620 244 l 1xcf80
857 254 m 1x9f80
 857 251 l 1x9f80
 923 252 l 1xaf80
 857 254 l 1x9f80
857 247 m 1
 857 250 l 1
 923 250 l 1xcf80
 857 247 l 1
EndSplineSet
Validated: 5
EndChar

StartChar: W
Encoding: 87 87 49
Width: 927
VWidth: 1843
Flags: W
HStem: 36 57<384.431 552.336> 177 180<448 523.858> 255 1<245 294> 256 8<641 697> 441 57<385.585 555.994>
VStem: 236 58<183.166 264 273 355.152> 376 180<209.339 283> 641 56<178.799 256 257 264 271 356.038>
LayerCount: 3
Fore
SplineSet
641 271 m 5x8f
 641 317 625 358 592 391 c 4
 559 424 519 441 472 441 c 4
 425 441 384 425 348 393 c 4
 312 361 294 320 294 273 c 5
 236 274 l 5
 236 333 259 386 305 431 c 4
 351 476 406 498 471 498 c 4
 532 498 585 476 630 432 c 4
 675 388 697 335 697 274 c 5
 670 272 l 5
 641 271 l 5x8f
697 255 m 5xaf
 697 198 674 147 628 102 c 4
 605 80 580 64 553 53 c 4
 526 42 497 36 466 36 c 4
 404 36 351 58 305 100 c 4
 259 142 236 194 236 254 c 5
 245 255 l 5
 262 256 l 5
 279 256 l 5
 294 255 l 5xaf
 294 218 311 182 345 146 c 4
 379 110 420 93 467 93 c 4
 512 93 553 109 588 141 c 4
 623 173 641 212 641 256 c 5x9f
 691 255 l 5
 697 255 l 5xaf
236 274 m 5
 236 266 l 5
 294 265 l 5
 294 272 l 5
 236 274 l 5
236 254 m 5
 236 264 l 5
 294 264 l 5x9f
 294 255 l 5
 236 254 l 5
641 271 m 5
 641 265 l 5
 697 266 l 5
 697 274 l 5
 641 271 l 5
641 257 m 5
 641 264 l 5
 697 264 l 5x9f
 697 255 l 5xaf
 641 257 l 5
466 177 m 4xcf
 450 177 439 179 432 183 c 4
 425 187 415 193 402 203 c 5
 385 222 376 244 376 267 c 4
 376 292 385 312 403 330 c 4
 412 339 421 346 432 350 c 5
 448 355 l 5
 466 357 l 5
 490 357 511 348 529 330 c 4
 538 322 545 312 549 300 c 6
 554 283 l 5
 556 267 l 5
 556 242 547 222 529 204 c 4
 511 186 491 177 466 177 c 4xcf
EndSplineSet
Validated: 5
EndChar

StartChar: X
Encoding: 88 88 50
Width: 1069
VWidth: 1843
Flags: W
HStem: 94 61<431.559 569> 426 58<424.273 528 542 640.125>
VStem: 268 75<223.038 353.038> 725 76<222.07 357.283>
LayerCount: 3
Fore
SplineSet
536 484 m 5
 536 426 l 5
 542 426 l 6
 582 426 623 414 667 391 c 5
 706 364 725 330 725 288 c 4
 725 247 705 214 664 189 c 4
 658 185 637 177 602 164 c 5
 569 157 l 5
 535 155 l 5
 495 155 452 167 406 188 c 5
 365 212 343 245 343 287 c 4
 343 323 362 358 401 391 c 5
 438 414 481 426 528 426 c 6
 534 426 l 5
 533 484 l 5
 525 484 l 6
 460 484 401 468 349 434 c 5
 295 397 268 348 268 287 c 4
 268 228 296 180 353 143 c 4
 404 111 465 94 535 94 c 4
 606 94 666 111 716 143 c 4
 772 179 801 227 801 287 c 4
 801 338 774 386 721 433 c 5
 672 467 613 484 545 484 c 6
 536 484 l 5
EndSplineSet
Validated: 9
EndChar

StartChar: Y
Encoding: 89 89 51
Width: 788
VWidth: 1413
Flags: W
HStem: 1 65<379.385 557.705> 165 208<445 528.933> 254 2<199 266> 256 9<670 734> 472 66<378.595 563.173>
VStem: 198 68<179.521 265 276 362.885> 361 209<205.751 288> 670 64<172.166 256 257 265 274 362.52>
LayerCount: 3
Fore
SplineSet
670 274 m 5x8f
 670 328 650 374 612 413 c 4
 574 452 527 472 473 472 c 4
 418 472 369 453 328 415 c 4
 287 377 266 331 266 276 c 5
 198 277 l 5
 198 346 225 407 279 459 c 4
 333 511 397 538 472 538 c 4
 543 538 605 512 657 461 c 4
 709 410 734 349 734 278 c 5
 704 275 l 5
 670 274 l 5x8f
734 256 m 5x9f
 734 189 708 129 654 77 c 4
 627 52 598 33 567 20 c 4
 536 7 502 1 466 1 c 4
 394 1 331 26 278 75 c 4
 225 124 199 184 199 254 c 5
 209 256 l 5
 229 256 l 5
 249 256 l 5
 266 256 l 5xaf
 266 213 286 170 325 129 c 4
 364 88 412 66 467 66 c 4
 520 66 567 86 608 123 c 4
 649 160 670 204 670 256 c 5
 727 256 l 5
 734 256 l 5x9f
198 277 m 5
 198 268 l 5
 266 267 l 5
 266 275 l 5
 198 277 l 5
199 254 m 5
 198 265 l 5
 266 265 l 5x9f
 266 256 l 5
 199 254 l 5
670 274 m 5
 670 267 l 5
 734 268 l 5
 734 278 l 5
 670 274 l 5
670 257 m 5
 670 265 l 5
 734 265 l 5
 734 256 l 5
 670 257 l 5
466 165 m 4xcf
 448 165 435 167 427 171 c 4
 419 175 407 183 392 195 c 5
 372 217 361 242 361 269 c 4
 361 298 371 321 392 342 c 4
 402 352 414 361 426 366 c 5
 445 371 l 5
 466 373 l 5
 494 373 518 363 539 342 c 4
 549 332 558 321 563 307 c 6
 568 288 l 5
 570 269 l 5
 570 240 560 215 540 195 c 4
 520 175 495 165 466 165 c 4xcf
EndSplineSet
Validated: 5
EndChar

StartChar: Z
Encoding: 90 90 52
Width: 1024
VWidth: 1843
Flags: W
HStem: 196 306
LayerCount: 3
Fore
SplineSet
231 196 m 1
 461 502 l 1
 690 196 l 1
 468 196 l 1
 453 196 l 1
 231 196 l 1
EndSplineSet
Validated: 1
EndChar

StartChar: bracketleft
Encoding: 91 91 53
Width: 1536
VWidth: 1843
Flags: W
HStem: -10 68<318 396 428 506>
VStem: 318 78<-10 58> 428 78<-10 58>
LayerCount: 3
Fore
SplineSet
396 58 m 1
 396 -10 l 1
 318 -10 l 1
 318 58 l 1
 396 58 l 1
396 58 m 1
 396 -10 l 1
 318 -10 l 1
 318 58 l 1
 396 58 l 1
396 58 m 1
 396 -10 l 1
 318 -10 l 1
 318 58 l 1
 396 58 l 1
506 58 m 1
 506 -10 l 1
 428 -10 l 1
 428 58 l 1
 506 58 l 1
506 58 m 1
 506 -10 l 1
 428 -10 l 1
 428 58 l 1
 506 58 l 1
506 58 m 1
 506 -10 l 1
 428 -10 l 1
 428 58 l 1
 506 58 l 1
EndSplineSet
Validated: 5
EndChar

StartChar: backslash
Encoding: 92 92 54
Width: 1536
VWidth: 1843
Flags: W
HStem: -6 68<1129 1207 1240 1318 1347 1425 1457 1535 1567 1645 1675 1753 1783 1861>
VStem: 1129 78<-6 62> 1240 78<-6 62> 1347 78<-6 62> 1457 78<-6 62> 1567 78<-6 62> 1675 78<-6 62> 1783 78<-6 62>
LayerCount: 3
Fore
SplineSet
1535 62 m 1
 1535 -6 l 1
 1457 -6 l 1
 1457 62 l 1
 1535 62 l 1
1535 62 m 1
 1535 -6 l 1
 1457 -6 l 1
 1457 62 l 1
 1535 62 l 1
1535 62 m 1
 1535 -6 l 1
 1457 -6 l 1
 1457 62 l 1
 1535 62 l 1
1645 62 m 1
 1645 -6 l 1
 1567 -6 l 1
 1567 62 l 1
 1645 62 l 1
1645 62 m 1
 1645 -6 l 1
 1567 -6 l 1
 1567 62 l 1
 1645 62 l 1
1645 62 m 1
 1645 -6 l 1
 1567 -6 l 1
 1567 62 l 1
 1645 62 l 1
1753 62 m 1
 1753 -6 l 1
 1675 -6 l 1
 1675 62 l 1
 1753 62 l 1
1753 62 m 1
 1753 -6 l 1
 1675 -6 l 1
 1675 62 l 1
 1753 62 l 1
1753 62 m 1
 1753 -6 l 1
 1675 -6 l 1
 1675 62 l 1
 1753 62 l 1
1861 62 m 1
 1861 -6 l 1
 1783 -6 l 1
 1783 62 l 1
 1861 62 l 1
1861 62 m 1
 1861 -6 l 1
 1783 -6 l 1
 1783 62 l 1
 1861 62 l 1
1861 62 m 1
 1861 -6 l 1
 1783 -6 l 1
 1783 62 l 1
 1861 62 l 1
1207 62 m 1
 1207 -6 l 1
 1129 -6 l 1
 1129 62 l 1
 1207 62 l 1
1207 62 m 1
 1207 -6 l 1
 1129 -6 l 1
 1129 62 l 1
 1207 62 l 1
1207 62 m 1
 1207 -6 l 1
 1129 -6 l 1
 1129 62 l 1
 1207 62 l 1
1318 62 m 1
 1318 -6 l 1
 1240 -6 l 1
 1240 62 l 1
 1318 62 l 1
1318 62 m 1
 1318 -6 l 1
 1240 -6 l 1
 1240 62 l 1
 1318 62 l 1
1318 62 m 1
 1318 -6 l 1
 1240 -6 l 1
 1240 62 l 1
 1318 62 l 1
1425 62 m 1
 1425 -6 l 1
 1347 -6 l 1
 1347 62 l 1
 1425 62 l 1
1425 62 m 1
 1425 -6 l 1
 1347 -6 l 1
 1347 62 l 1
 1425 62 l 1
1425 62 m 1
 1425 -6 l 1
 1347 -6 l 1
 1347 62 l 1
 1425 62 l 1
EndSplineSet
Validated: 5
EndChar

StartChar: bracketright
Encoding: 93 93 55
Width: 1203
VWidth: 1382
Flags: W
HStem: 56 287
LayerCount: 3
Fore
SplineSet
354 112 m 5
 354 137 l 5
 1030 137 l 5
 1030 112 l 5
 354 112 l 5
1111 56 m 5
 1111 343 l 5
 272 343 l 5
 272 56 l 5
 1111 56 l 5
354 289 m 5
 1030 289 l 5
 1030 264 l 5
 354 264 l 5
 354 289 l 5
354 213 m 5
 1030 213 l 5
 1030 189 l 5
 354 189 l 5
 354 213 l 5
EndSplineSet
Validated: 9
EndChar

StartChar: asciicircum
Encoding: 94 94 56
Width: 1527
VWidth: 1541
Flags: W
HStem: 307 54<512 635 714 837 910 1034>
VStem: 512 123<307 361> 714 123<307 361> 910 124<307 361>
LayerCount: 3
Fore
SplineSet
1089 334 m 1
 923 243 l 1
 923 181 l 1
 1188 333 l 1
 920 493 l 1
 920 427 l 1
 1089 334 l 1
1034 361 m 1
 1034 307 l 1
 910 307 l 1
 910 361 l 1
 1034 361 l 1
837 361 m 1
 837 307 l 1
 714 307 l 1
 714 361 l 1
 837 361 l 1
635 361 m 1
 635 307 l 1
 512 307 l 1
 512 361 l 1
 635 361 l 1
EndSplineSet
Validated: 9
EndChar

StartChar: underscore
Encoding: 95 95 57
Width: 1586
VWidth: 1541
Flags: W
HStem: 306 55<532 1079>
LayerCount: 3
Fore
SplineSet
1079 361 m 1
 1079 306 l 1
 532 306 l 1
 532 361 l 1
 1079 361 l 1
1134 334 m 1
 969 243 l 1
 969 181 l 1
 1233 333 l 1
 966 493 l 1
 966 427 l 1
 1134 334 l 1
EndSplineSet
Validated: 9
EndChar

StartChar: less
Encoding: 60 60 58
Width: 1024
VWidth: 1843
Flags: W
LayerCount: 3
Fore
SplineSet
197 224 m 5
 197 1 l 5
 243 1 l 5
 243 224 l 5
 197 224 l 5
221 382 m 5
 283 320 l 5
 220 257 l 5
 157 318 l 5
 221 382 l 5
243 224 m 5
 337 320 l 5
 223 434 l 5
 105 317 l 5
 197 224 l 5
 243 224 l 5
EndSplineSet
Validated: 5
EndChar

StartChar: equal
Encoding: 61 61 59
Width: 1024
VWidth: 1843
Flags: W
HStem: 71 243
VStem: 147 290
LayerCount: 3
Fore
SplineSet
160 279 m 1
 147 263 l 1
 147 124 l 1
 160 108 l 1
 188 108 l 1
 188 71 l 1
 437 71 l 1
 437 314 l 1
 188 314 l 1
 188 279 l 1
 160 279 l 1
EndSplineSet
Validated: 9
EndChar

StartChar: greater
Encoding: 62 62 60
Width: 1024
VWidth: 1843
Flags: W
HStem: 0 20<245 307> 443 43<237.807 316.158> 500 20G<154 194 357 397.667>
VStem: 181 44<352.47 388 389 428.531> 328 43<353.469 391 393 427.53>
LayerCount: 3
Fore
SplineSet
287 0 m 1028,0,-1
287 0 m 1028,1,-1
253 73 m 5,2,-1
 299 73 l 5,3,-1
 299 298 l 5,4,-1
 287 296 l 5,5,-1
 275 295 l 5,6,-1
 264 296 l 5,7,-1
 253 298 l 5,8,-1
 253 73 l 5,2,-1
409 290 m 5,9,-1
 378 260 l 5,10,-1
 329 310 l 5,11,-1
 359 340 l 5,12,-1
 409 290 l 5,9,-1
223 471 m 5,13,-1
 193 441 l 5,14,-1
 144 490 l 5,15,-1
 174 520 l 5,16,-1
 223 471 l 5,13,-1
377 524 m 5,17,-1
 408 494 l 5,18,-1
 357 444 l 5,19,-1
 327 474 l 5,20,-1
 377 524 l 5,17,-1
192 341 m 5,21,-1
 222 310 l 5,22,-1
 172 261 l 5,23,-1
 142 291 l 5,24,-1
 192 341 l 5,21,-1
299 73 m 5,25,-1
 354 0 l 5,26,-1
 279 0 l 5,27,-1
 276 0 l 5,28,-1
 276 20 l 5,29,-1
 307 20 l 5,30,-1
 276 62 l 5,31,-1
 245 20 l 5,32,-1
 276 20 l 5,33,-1
 276 0 l 5,34,-1
 273 0 l 5,35,-1
 196 0 l 5,36,-1
 253 73 l 5,37,-1
 299 73 l 5,25,-1
328 392 m 1028,38,-1
328 392 m 1028,39,-1
328 391 m 5,40,-1
 365 391 l 5,41,-1
 371 391 l 5,42,-1
 371 386 l 6,43,-1
 371 361 363 340 344 322 c 4,46,-1
 325 304 302 295 275 295 c 4,49,-1
 259 295 240 305 216 323 c 4,52,-1
 192 341 181 363 181 388 c 5,55,-1
 197 388 l 5,56,-1
 213 389 l 5,57,-1
 220 389 l 5,58,-1
 225 388 l 5,59,-1
 225 374 230 362 240 352 c 4,62,-1
 245 348 251 345 257 342 c 5,65,-1
 275 338 l 5,66,-1
 289 338 302 343 313 353 c 4,69,-1
 324 363 328 374 328 387 c 6,72,-1
 328 391 l 5,40,-1
224 389 m 5,73,-1
 215 389 l 5,74,-1
 204 389 l 5,75,-1
 195 389 l 5,76,-1
 189 389 l 5,77,-1
 181 389 l 5,78,-1
 181 393 l 6,79,-1
 181 410 191 430 210 452 c 4,82,-1
 229 474 252 486 279 486 c 4,85,-1
 303 486 324 477 343 458 c 4,88,-1
 362 439 371 418 371 393 c 5,91,-1
 368 392 l 5,92,-1
 353 391 l 5,93,-1
 339 391 l 5,94,-1
 328 392 l 5,95,-1
 328 406 324 418 314 428 c 4,98,-1
 304 438 292 443 278 443 c 4,101,-1
 264 443 252 439 241 429 c 4,104,-1
 230 419 225 408 225 393 c 5,107,-1
 224 389 l 5,73,-1
EndSplineSet
Validated: 5
EndChar

StartChar: question
Encoding: 63 63 61
Width: 1111
VWidth: 1843
Flags: W
HStem: 2 50<454.508 651.999> 114 30<523 616.167> 263 11<825 833> 270 1<391 419> 271 6<391 419 690 721> 277 9<390 390 701 721> 416 29<544 619.432> 507 47<457.573 656.508>
VStem: 281 48<173.733 274 287 382.726> 390 29<215.243 277 285 339.576> 690 31<212.649 277 284 345.5> 781 52<173.387 274 286 380.248>
LayerCount: 3
Fore
SplineSet
781 286 m 5xc7f0
 781 345 759 397 716 441 c 4
 673 485 621 507 561 507 c 4
 497 507 443 486 397 444 c 4
 351 402 329 349 329 287 c 5
 281 286 l 5
 281 351 309 412 364 469 c 4
 419 526 485 554 563 554 c 4
 636 554 699 528 753 476 c 4
 807 424 833 360 833 286 c 5
 814 285 l 5
 795 285 l 5
 781 286 l 5xc7f0
833 263 m 5xe3f0
 833 193 805 132 750 80 c 4
 695 28 631 2 557 2 c 4
 484 2 420 27 365 78 c 4
 310 129 282 190 282 262 c 5
 290 265 l 5
 314 267 l 5
 323 266 l 5
 329 265 l 5
 329 208 350 157 395 115 c 4
 418 94 442 79 468 68 c 6
 487 61 l 5
 514 55 l 6
 525 53 538 52 553 52 c 4
 613 52 666 73 712 114 c 4
 758 155 781 206 781 265 c 5
 789 267 l 5
 807 266 l 5
 825 263 l 5
 833 263 l 5xe3f0
281 286 m 5xc7f0
 281 277 l 5
 329 277 l 5
 329 286 l 5
 281 286 l 5xc7f0
282 262 m 5
 281 274 l 5
 329 274 l 5xe3f0
 329 265 l 5
 282 262 l 5
781 286 m 5xc7f0
 781 277 l 5
 833 277 l 5
 833 286 l 5
 781 286 l 5xc7f0
781 265 m 5
 781 274 l 5
 833 274 l 5
 833 263 l 5xe3f0
 781 265 l 5
690 284 m 5
 690 320 677 351 652 377 c 4
 627 403 595 416 558 416 c 4
 528 416 497 403 466 378 c 4
 435 353 419 322 419 285 c 5
 390 284 l 5
 390 325 407 363 441 397 c 4
 457 412 475 424 496 432 c 4
 506 436 516 439 527 441 c 6
 544 444 l 5
 559 445 l 5
 588 445 608 441 620 433 c 5
 638 426 656 415 673 398 c 4
 705 366 721 328 721 284 c 5
 701 284 l 5
 690 284 l 5
721 271 m 5xcbf0
 721 229 705 192 672 161 c 4
 639 130 600 114 555 114 c 6
 540 114 l 5
 523 115 l 5
 508 118 l 5
 492 124 l 6
 473 131 456 143 440 159 c 4
 407 190 391 227 391 270 c 5
 405 271 l 5
 414 271 l 5
 419 271 l 5xd3f0
 419 238 432 208 458 182 c 4
 471 170 485 160 501 153 c 5
 529 147 546 144 553 144 c 4
 589 144 620 156 648 180 c 4
 676 204 690 235 690 272 c 5
 699 273 l 5
 717 271 l 5
 721 271 l 5xcbf0
390 284 m 5
 390 279 l 5
 419 279 l 5
 419 284 l 5
 390 284 l 5
391 270 m 5
 390 277 l 5xd7f0
 419 277 l 5xcbf0
 419 271 l 5
 391 270 l 5
690 284 m 5
 690 279 l 5
 721 279 l 5
 721 284 l 5
 690 284 l 5
690 272 m 5
 690 277 l 5
 721 277 l 5
 721 271 l 5xcbf0
 690 272 l 5
EndSplineSet
Validated: 5
EndChar

StartChar: at
Encoding: 64 64 62
Width: 1024
VWidth: 1843
Flags: W
HStem: 110 321
VStem: 164 321
LayerCount: 3
Fore
SplineSet
164 399 m 1
 196 431 l 1
 485 142 l 1
 453 110 l 1
 164 399 l 1
193 110 m 1
 162 140 l 1
 451 430 l 1
 482 398 l 1
 193 110 l 1
EndSplineSet
Validated: 5
EndChar

StartChar: hyphen
Encoding: 45 45 63
Width: 746
VWidth: 1843
Flags: W
HStem: 124 79<115 217> 645 79<115 217>
VStem: 115 227<124 203 645 724> 217 125<203 645>
LayerCount: 3
Fore
SplineSet
217 203 m 1xd0
 217 645 l 1xd0
 115 645 l 1
 115 724 l 1
 342 724 l 1
 342 124 l 1
 115 124 l 1
 115 203 l 1xe0
 217 203 l 1xd0
EndSplineSet
Validated: 1
EndChar

StartChar: zero
Encoding: 48 48 64
Width: 1024
VWidth: 1843
Flags: W
HStem: 29 45<588.879 608>
LayerCount: 3
Fore
SplineSet
370 187 m 1
 358 186 l 1
 333 176 l 1
 312 165 l 1
 290 152 l 1
 257 133 l 1
 257 88 l 1
 290 108 l 1
 312 120 l 1
 333 131 l 1
 358 141 l 1
 370 142 l 1
 370 187 l 1
767 87 m 1
 755 81 l 1
 734 72 l 1
 705 57 l 1
 683 43 l 1
 660 32 l 1
 643 28 l 1
 643 73 l 1
 660 77 l 1
 683 88 l 1
 705 102 l 1
 734 117 l 1
 755 126 l 1
 767 131 l 1
 767 87 l 1
639 73 m 1
 608 74 l 1
 577 84 l 1
 551 97 l 1
 532 108 l 1
 517 117 l 1
 496 127 l 1
 475 139 l 1
 459 149 l 1
 445 159 l 1
 432 168 l 1
 415 178 l 1
 400 185 l 1
 387 187 l 1
 374 187 l 1
 374 152 l 1
 374 142 l 1
 387 142 l 1
 400 140 l 1
 415 133 l 1
 432 123 l 1
 445 114 l 1
 459 104 l 1
 475 94 l 1
 496 83 l 1
 517 72 l 1
 532 63 l 1
 551 52 l 1
 577 39 l 1
 608 29 l 1
 639 28 l 1
 639 73 l 1
EndSplineSet
Validated: 9
EndChar

StartChar: one
Encoding: 49 49 65
Width: 1022
VWidth: 1843
Flags: W
HStem: -7 23<858 932 1037 1075.52> 20 25<650.303 719.666> 83 24<858 919> 99 2<764 766> 157 25<649.259 721.129> 166 24<858 927>
VStem: 604 26<64.6466 98 103 138.611> 741 25<65.9819 98 102 136.239> 832 26<16 83 107 166> 946 25<119.236 153> 993 24<34 139> 1085 23<-4 17 25.2842 139>
LayerCount: 3
Fore
SplineSet
832 -7 m 1xc7f0
 832 190 l 1
 906 190 l 2
 923 190 935 188 942 184 c 0
 951 181 958 175 963 166 c 0
 966 161 968 157 969 153 c 2
 971 139 l 2
 971 131 969 123 965 115 c 1
 961 110 l 1
 956 105 l 1
 944 97 l 1
 956 93 965 87 971 79 c 1
 981 50 l 1
 981 41 979 32 975 24 c 2
 969 14 l 2
 967 11 964 8 960 6 c 2
 951 -0 l 1
 939 -4 l 1
 925 -7 l 1
 907 -7 l 1
 832 -7 l 1xc7f0
858 107 m 1xe7f0
 901 107 l 1
 909 107 l 2
 917 107 922 108 925 109 c 0
 932 111 938 114 941 119 c 0
 944 124 946 131 946 136 c 0
 946 142 945 147 942 151 c 0
 940 155 934 159 927 163 c 1
 916 166 l 1
 897 166 l 1
 858 166 l 1
 858 107 l 1xe7f0
858 16 m 1
 907 16 l 1
 916 16 l 2
 921 16 924 16 925 17 c 2
 932 19 l 1
 935 20 l 1
 941 22 l 2
 944 24 947 28 950 33 c 2
 953 41 l 1
 954 50 l 2
 954 57 952 63 948 68 c 0
 945 73 940 77 932 80 c 2
 919 82 l 1
 903 83 l 1
 858 83 l 1
 858 16 l 1
1087 -4 m 1
 1087 17 l 1
 1076 1 1061 -7 1042 -7 c 0
 1033 -7 1025 -6 1019 -3 c 2
 1008 3 l 1
 1002 9 l 1
 998 16 l 1
 994 27 l 1
 993 43 l 1
 993 50 l 1
 993 139 l 1
 1017 139 l 1
 1017 60 l 1
 1017 44 l 1
 1019 34 l 2
 1021 27 1023 22 1028 19 c 2
 1037 15 l 2
 1040 14 1043 13 1047 13 c 0
 1054 13 1060 15 1066 19 c 0
 1072 23 1077 28 1080 34 c 0
 1083 40 1085 49 1085 62 c 2
 1085 139 l 1
 1108 139 l 1
 1108 -4 l 1
 1087 -4 l 1
741 102 m 1
 741 117 735 130 725 141 c 0
 715 152 702 157 686 157 c 0
 671 157 657 152 646 142 c 0
 635 132 630 119 630 103 c 1
 604 103 l 1
 604 123 612 142 628 158 c 0
 644 174 664 182 686 182 c 0xcbf0
 708 182 727 174 743 159 c 0
 759 144 766 125 766 103 c 1
 741 102 l 1
766 97 m 1
 766 77 758 59 741 43 c 0
 733 36 725 30 715 26 c 0
 705 22 695 20 685 20 c 0
 669 20 651 28 632 42 c 0
 613 56 604 74 604 96 c 1
 614 97 l 1
 620 97 l 1
 626 97 l 1
 630 98 l 1
 630 84 635 72 646 61 c 0
 657 51 671 45 686 45 c 0
 700 45 713 51 724 61 c 0
 735 71 741 83 741 98 c 1
 764 97 l 1
 766 97 l 1
604 103 m 1
 604 101 l 1
 630 101 l 1xd3f0
 604 103 l 1
604 96 m 1
 604 99 l 1
 630 100 l 1
 604 96 l 1
766 103 m 1
 766 101 l 1
 741 101 l 1
 741 98 l 1
 766 99 l 1
 766 97 l 1
 766 103 l 1
EndSplineSet
Validated: 5
EndChar

StartChar: two
Encoding: 50 50 66
Width: 1024
VWidth: 1843
Flags: W
HStem: -12 19<1041.54 1070> 19 25<658.33 729.859> 53 21<1052 1090> 58 23<1068 1107> 77 22<867 929.25> 97 3<773 775> 98 1<773 775> 117 20<1059 1099.72> 156 25<659.249 730.129> 165 21<867 958.088>
VStem: 613 26<62.7774 97 101 136.611> 750 25<63.9819 97 101 135.239> 841 26<-11 77 99 165> 972 27<123 154.094> 1008 25<29 40> 1107 25<0 9 41 63 77.2 107>
LayerCount: 3
Fore
SplineSet
750 101 m 1xc1bf
 750 116 744 129 734 140 c 0
 724 151 711 156 695 156 c 0
 680 156 666 150 655 140 c 0
 644 130 639 117 639 101 c 1
 613 101 l 1
 613 121 621 140 637 156 c 0
 653 172 673 181 695 181 c 0
 717 181 736 173 752 158 c 0
 768 143 775 124 775 102 c 1
 750 101 l 1xc1bf
775 95 m 1
 775 75 767 57 750 41 c 0
 742 34 734 29 724 25 c 0
 714 21 704 19 694 19 c 0
 678 19 660 26 641 40 c 0
 622 54 613 73 613 95 c 1
 623 96 l 1
 629 96 l 1
 635 96 l 1
 639 97 l 1
 639 83 644 70 655 59 c 0
 666 49 680 44 695 44 c 0
 709 44 722 49 733 59 c 0
 744 69 750 82 750 97 c 1xc53f
 773 95 l 1
 775 95 l 1
613 101 m 1
 613 99 l 1xc33f
 639 100 l 1
 613 101 l 1
613 95 m 1
 613 98 l 1
 639 98 l 1
 613 95 l 1
775 102 m 1
 775 99 l 1xc33f
 750 100 l 1
 750 97 l 1xc53f
 775 98 l 1
 775 95 l 1
 775 102 l 1
841 -11 m 1
 841 186 l 1
 928 186 l 2xe97f
 944 186 958 185 968 181 c 0
 978 177 986 171 990 163 c 0
 996 153 999 143 999 133 c 0
 999 125 998 119 996 116 c 2
 992 106 l 1
 985 99 l 2
 984 97 970 90 943 79 c 1
 958 69 l 1
 969 58 l 1xd3bf
 980 43 l 1
 1014 -11 l 1
 981 -11 l 1
 956 30 l 1
 937 57 l 1
 932 64 l 1
 924 70 l 1
 918 74 l 2
 916 75 914 75 912 75 c 0
 908 76 903 77 897 77 c 2
 867 77 l 1xe93f
 867 -11 l 1
 841 -11 l 1
867 99 m 1
 923 99 l 2
 932 99 941 100 948 102 c 0
 955 104 962 109 967 115 c 1
 970 123 l 1
 972 133 l 2
 972 139 967 146 960 153 c 0
 953 160 942 165 929 165 c 2
 867 165 l 1
 867 99 l 1
1109 9 m 1
 1096 -0 l 1
 1083 -7 l 1
 1070 -11 l 1
 1056 -12 l 1
 1040 -12 1028 -9 1020 -1 c 0
 1012 7 1008 17 1008 29 c 2
 1008 40 l 1
 1013 49 l 1
 1025 62 l 2
 1028 65 1034 68 1042 70 c 2
 1052 72 l 1
 1068 74 l 1
 1077 74 l 2xe13f
 1080 74 1084 75 1088 76 c 0
 1095 77 1102 79 1107 81 c 1xd13f
 1107 88 l 2
 1107 97 1104 104 1100 108 c 0
 1094 113 1084 117 1072 117 c 0
 1060 117 1053 115 1048 111 c 0
 1043 108 1038 101 1035 90 c 1
 1012 93 l 1
 1013 100 1014 105 1016 107 c 0
 1017 110 1019 114 1022 117 c 2
 1030 125 l 1
 1044 132 l 1
 1059 135 l 1
 1076 137 l 1
 1093 137 l 2
 1096 137 1101 135 1106 133 c 0
 1110 132 1113 130 1115 128 c 2
 1123 122 l 1
 1130 107 l 1
 1132 83 l 1
 1132 51 l 1
 1132 25 l 1
 1132 14 l 1
 1133 4 l 2
 1134 0 1136 -4 1139 -9 c 1
 1113 -9 l 1
 1110 -0 l 1
 1109 9 l 1
1107 63 m 1
 1090 58 l 1xd13f
 1068 53 l 2
 1063 53 1059 52 1055 51 c 2
 1046 48 l 1
 1036 41 l 1
 1034 36 1033 32 1033 29 c 2
 1036 24 l 1
 1041 17 l 2
 1046 10 1053 7 1062 7 c 0
 1073 7 1081 9 1087 13 c 0
 1093 16 1099 22 1103 30 c 1
 1106 41 l 1
 1107 53 l 1
 1107 63 l 1
EndSplineSet
Validated: 5
EndChar

StartChar: three
Encoding: 51 51 67
Width: 1024
VWidth: 1843
Flags: W
HStem: 125 25<207 363 364 512> 399 32<348 361> 447 26<207 361 362 512>
VStem: 181 26<150 447> 512 26<150 447>
LayerCount: 3
Fore
SplineSet
363 125 m 1
 321 125 l 1
 181 125 l 1
 181 473 l 1
 361 473 l 1
 361 447 l 1
 207 447 l 1
 207 150 l 1
 363 150 l 1
 363 125 l 1
364 150 m 1
 512 150 l 1
 512 447 l 1
 362 447 l 1
 362 473 l 1
 538 473 l 1
 538 125 l 1
 364 125 l 1
 364 150 l 1
457 150 m 1
 401 313 l 1
 414 338 l 1
 421 360 l 1
 419 383 l 1
 411 403 l 1
 396 419 l 1
 380 428 l 1
 369 431 l 1
 362 431 l 1
 362 399 l 1
 365 399 l 1
 371 397 l 1
 379 393 l 1
 387 384 l 1
 392 373 l 1
 393 361 l 1
 389 349 l 1
 374 312 l 1
 429 150 l 1
 457 150 l 1
263 150 m 1
 319 313 l 1
 305 338 l 1
 299 360 l 1
 301 383 l 1
 309 403 l 1
 323 419 l 1
 339 428 l 1
 351 431 l 1
 361 431 l 1
 361 399 l 1
 355 399 l 1
 348 397 l 1
 340 393 l 1
 332 384 l 1
 328 373 l 1
 327 361 l 1
 330 349 l 1
 345 312 l 1
 291 150 l 1
 263 150 l 1
EndSplineSet
Validated: 5
EndChar

StartChar: four
Encoding: 52 52 68
Width: 1024
VWidth: 1843
Flags: W
HStem: 125 25<207 363 364 512> 165 23<308.723 401.381> 218 21<325.834 390.758> 360 20<326.408 382.93> 413 20G<344 367.5 449.182 475.421> 447 26<207 361 362 512>
VStem: 181 26<150 447> 226 22<279 348.076> 278 21<264.637 333.138> 512 26<150 447>
LayerCount: 3
Fore
SplineSet
363 125 m 1
 321 125 l 1
 181 125 l 1
 181 473 l 1
 361 473 l 1
 361 447 l 1
 207 447 l 1
 207 150 l 1
 363 150 l 1
 363 125 l 1
364 150 m 1
 512 150 l 1
 512 447 l 1
 362 447 l 1
 362 473 l 1
 538 473 l 1
 538 125 l 1
 364 125 l 1
 364 150 l 1
433 377 m 1
 423 387 410 395 393 400 c 2
 375 405 l 1
 356 408 l 1
 326 408 301 399 281 379 c 0
 259 358 248 331 248 299 c 0
 248 269 257 245 277 224 c 2
 278 223 l 1
 262 207 l 1
 252 218 243 232 236 250 c 1
 228 279 l 1
 226 298 l 1
 226 336 239 368 266 395 c 0
 278 407 296 417 317 423 c 2
 344 430 l 1
 359 433 l 1
 376 433 393 430 408 424 c 0
 423 418 438 408 450 396 c 1
 449 393 446 390 443 387 c 2
 433 377 l 1
262 207 m 1
 265 204 l 1
 281 220 l 1
 277 223 l 1
 262 207 l 1
270 199 m 1
 266 202 l 1
 282 218 l 1
 285 215 l 1
 270 199 l 1
392 343 m 1
 380 354 368 360 355 360 c 0
 341 360 329 354 317 342 c 0
 305 331 299 316 299 299 c 0
 299 283 304 269 315 258 c 1
 299 243 l 1
 285 259 278 278 278 299 c 0
 278 309 280 320 284 330 c 0
 288 340 294 349 302 356 c 0
 319 372 336 380 356 380 c 0
 375 380 392 373 406 359 c 1
 399 352 l 1
 392 343 l 1
299 243 m 1
 301 241 l 1
 316 257 l 1
 315 258 l 1
 299 243 l 1
304 238 m 1
 301 240 l 1
 317 256 l 1
 318 255 l 1
 304 238 l 1
455 205 m 1
 449 199 l 2
 442 192 429 184 409 176 c 1
 382 168 l 2
 373 166 366 165 359 165 c 0
 325 165 295 176 270 199 c 1
 272 203 l 1
 276 208 l 1
 283 214 l 1
 285 215 l 1
 306 197 331 188 358 188 c 0
 377 188 401 197 431 215 c 1
 436 220 l 1
 455 205 l 1
400 257 m 1
 397 254 l 2
 385 244 372 239 358 239 c 0
 344 239 330 245 318 255 c 1
 311 247 l 1
 304 238 l 1
 321 224 339 218 359 218 c 0
 377 218 394 224 410 237 c 2
 417 243 l 1
 400 257 l 1
392 343 m 1024
392 343 m 1024
392 343 m 1024
392 343 m 1024
418 360 m 1
 467 415 l 1
 499 339 l 1
 418 360 l 1
EndSplineSet
Validated: 5
EndChar

StartChar: five
Encoding: 53 53 69
Width: 1024
VWidth: 1843
Flags: W
HStem: 125 25<207 363 364 512> 164 36<311 408> 346 14<342.461 364> 415 13<361 379.525> 447 26<207 361 362 512>
VStem: 181 26<150 447> 319 13<388 403.638> 345 30<201 346> 388 12<372.455 385 388 405.593> 512 26<150 447>
LayerCount: 3
Fore
SplineSet
401 388 m 1
 388 388 l 1
 388 395 386 401 381 407 c 0
 376 413 369 415 361 415 c 1
 342 408 l 1
 337 403 333 396 332 388 c 1
 319 388 l 1
 319 398 323 408 331 416 c 0
 339 424 349 428 361 428 c 0
 372 428 381 424 389 416 c 0
 397 408 401 399 401 388 c 1
360 346 m 2
 357 346 347 350 331 357 c 1
 323 364 320 373 320 385 c 1
 332 386 l 1
 342 367 l 1
 347 362 353 360 360 360 c 1
 364 361 l 1
 375 367 l 2
 384 372 388 379 388 386 c 1
 400 385 l 1
 400 374 395 366 388 358 c 1
 376 351 l 1
 360 346 l 2
375 201 m 1
 345 201 l 1
 345 346 l 1
 375 346 l 1
 375 201 l 1
360 164 m 1
 342 164 l 1
 311 167 l 1
 289 180 l 1
 261 204 l 1
 246 226 l 1
 235 250 l 1
 227 276 l 1
 235 281 l 1
 247 260 l 1
 265 236 l 1
 282 219 l 1
 305 206 l 1
 325 201 l 1
 342 200 l 1
 360 200 l 1
 360 164 l 1
493 276 m 1
 485 250 l 1
 474 226 l 1
 459 204 l 1
 431 180 l 1
 408 167 l 1
 378 164 l 1
 360 164 l 1
 360 200 l 1
 378 200 l 1
 395 201 l 1
 414 206 l 1
 437 219 l 1
 455 236 l 1
 473 260 l 1
 485 281 l 1
 493 276 l 1
332 386 m 1
 319 387 l 1
 320 385 l 1
 332 386 l 1
388 386 m 1
 401 387 l 1
 388 386 l 1
363 125 m 1
 321 125 l 1
 181 125 l 1
 181 473 l 1
 361 473 l 1
 361 447 l 1
 207 447 l 1
 207 150 l 1
 363 150 l 1
 363 125 l 1
364 150 m 1
 512 150 l 1
 512 447 l 1
 362 447 l 1
 362 473 l 1
 538 473 l 1
 538 125 l 1
 364 125 l 1
 364 150 l 1
EndSplineSet
Validated: 5
EndChar

StartChar: six
Encoding: 54 54 70
Width: 1024
VWidth: 1843
Flags: W
LayerCount: 3
Fore
SplineSet
228 321 m 1
 526 321 l 1
 526 363 l 1
 228 363 l 1
 228 321 l 1
228 363 m 1
 228 321 l 1
 228 363 l 1
526 363 m 1
 526 321 l 1
 526 363 l 1
227 388 m 1
 679 388 l 1
 679 434 l 1
 227 434 l 1
 227 388 l 1
227 434 m 1
 227 388 l 1
 227 434 l 1
679 434 m 1
 679 388 l 1
 679 434 l 1
227 249 m 1
 678 249 l 1
 678 295 l 1
 227 295 l 1
 227 249 l 1
227 295 m 1
 227 249 l 1
 227 295 l 1
678 295 m 1
 678 249 l 1
 678 295 l 1
227 111 m 1
 679 111 l 1
 679 157 l 1
 227 157 l 1
 227 111 l 1
227 157 m 1
 227 111 l 1
 227 157 l 1
679 157 m 1
 679 111 l 1
 679 157 l 1
227 181 m 1
 526 181 l 1
 526 224 l 1
 227 224 l 1
 227 181 l 1
227 224 m 1
 227 181 l 1
 227 224 l 1
526 224 m 1
 526 181 l 1
 526 224 l 1
EndSplineSet
Validated: 5
EndChar

StartChar: seven
Encoding: 55 55 71
Width: 987
VWidth: 1843
Flags: W
HStem: 390 20G<371 615>
LayerCount: 3
Fore
SplineSet
739 122 m 1
 739 466 l 1
 248 466 l 1
 248 122 l 1
 639 122 l 1
 739 122 l 1
639 272 m 1
 347 272 l 1
 347 312 l 1
 639 312 l 1
 639 272 l 1
615 410 m 1
 347 201 l 1
 347 219 l 1
 639 219 l 1
 639 199 l 1
 371 410 l 1
 615 410 l 1
639 388 m 1
 639 368 l 1
 347 368 l 1
 347 386 l 1
 615 177 l 1
 370 177 l 1
 639 388 l 1
EndSplineSet
Validated: 5
EndChar

StartChar: eight
Encoding: 56 56 72
Width: 1213
VWidth: 1843
Flags: W
HStem: 5 21G<829 869.444> 147 317<509.062 667.432> 582 20G<301.556 342.118 833.117 872.565>
LayerCount: 3
Fore
SplineSet
449 384 m 5
 276 557 l 5
 322 602 l 5
 493 432 l 5
 449 384 l 5
493 432 m 5
 499 436 l 5
 508 441 l 5
 525 450 l 6
 545 459 566 464 588 464 c 4
 603 464 624 460 650 452 c 5
 666 445 l 6
 671 443 677 440 683 435 c 5
 853 606 l 5
 898 560 l 5
 725 387 l 5
 739 363 746 336 746 306 c 6
 746 287 l 5
 744 273 l 5
 736 252 l 5
 722 223 l 5
 895 50 l 5
 849 5 l 5
 678 176 l 5
 665 168 l 5
 650 161 l 5
 630 152 609 147 588 147 c 4
 567 147 544 152 522 161 c 5
 506 168 l 5
 491 179 l 5
 319 10 l 5
 273 55 l 5
 449 228 l 5
 444 239 439 250 435 263 c 5
 431 283 l 5
 430 306 l 6
 430 323 432 335 435 345 c 4
 438 358 443 372 449 384 c 5
 493 432 l 5
EndSplineSet
Validated: 5
EndChar

StartChar: nine
Encoding: 57 57 73
Width: 819
VWidth: 1843
Flags: W
LayerCount: 3
Fore
SplineSet
204 -1 m 5
 609 -1 l 5
 609 763 l 5
 204 763 l 5
 204 -1 l 5
EndSplineSet
Validated: 9
EndChar

StartChar: colon
Encoding: 58 58 74
Width: 1024
VWidth: 1843
Flags: W
HStem: 399 20G<266.926 297.074>
VStem: 129 306
LayerCount: 3
Fore
SplineSet
129 216 m 5
 282 419 l 5
 435 216 l 5
 287 216 l 5
 276 216 l 5
 129 216 l 5
297 63 m 5
 305 63 l 5
 305 215 l 5
 259 215 l 5
 259 211 l 5
 259 63 l 5
 272 63 l 5
 297 63 l 5
282 1 m 5
 332 63 l 5
 233 63 l 5
 282 1 l 5
282 1 m 1028
282 1 m 1028
EndSplineSet
Validated: 5
EndChar

StartChar: semicolon
Encoding: 59 59 75
Width: 1024
VWidth: 1843
Flags: W
HStem: 210 37<206 285 286 365> 394 20G<271 301>
VStem: 133 306
LayerCount: 3
Fore
SplineSet
285 247 m 5
 285 210 l 5
 281 210 l 5
 133 210 l 5
 286 414 l 5
 439 210 l 5
 291 210 l 5
 286 210 l 5
 286 247 l 5
 365 247 l 5
 286 354 l 5
 206 247 l 5
 285 247 l 5
285 -2 m 5
 335 60 l 5
 236 60 l 5
 285 -2 l 5
285 -2 m 1028
300 60 m 5
 308 60 l 5
 300 60 l 5
262 210 m 5
 262 60 l 5
 308 60 l 5
 308 210 l 5
 262 210 l 5
EndSplineSet
Validated: 5
EndChar

StartChar: period
Encoding: 46 46 76
Width: 746
VWidth: 1843
Flags: W
HStem: 124 79<240 342> 645 79<240 342>
VStem: 115 227<124 203 645 724> 115 125<203 645>
LayerCount: 3
Fore
SplineSet
342 124 m 1xe0
 115 124 l 1
 115 724 l 1
 342 724 l 1
 342 645 l 1xe0
 240 645 l 1
 240 203 l 1xd0
 342 203 l 1
 342 124 l 1xe0
EndSplineSet
Validated: 1
EndChar

StartChar: slash
Encoding: 47 47 77
Width: 1024
VWidth: 1843
Flags: W
HStem: 246 160<146 216.129>
VStem: 82 160<268.707 343>
LayerCount: 3
Fore
SplineSet
138 1 m 5
 185 1 l 5
 185 246 l 5
 138 246 l 5
 138 1 l 5
161 245 m 4
 139 245 120 253 105 268 c 4
 90 283 82 303 82 326 c 4
 82 348 90 367 106 383 c 4
 113 390 122 395 131 399 c 5
 146 404 l 5
 163 406 l 5
 184 406 202 398 218 382 c 4
 225 375 231 366 235 356 c 6
 239 343 l 5
 242 325 l 5
 242 303 234 283 219 268 c 4
 204 253 184 245 161 245 c 4
EndSplineSet
Validated: 5
EndChar

StartChar: comma
Encoding: 44 44 78
Width: 819
VWidth: 1843
Flags: W
HStem: 127 257<203 613>
LayerCount: 3
Fore
SplineSet
613 127 m 1
 203 127 l 1
 203 384 l 1
 613 384 l 1
 613 127 l 1
EndSplineSet
Validated: 1
EndChar

StartChar: asterisk
Encoding: 42 42 79
Width: 398
VWidth: 524
Flags: W
HStem: -3 42<120.896 278.691> 354 42<120.896 278.691>
VStem: 0 42<117.896 275.469> 356 42<117.896 275.469>
LayerCount: 3
Fore
SplineSet
200 396 m 0
 255 396 301 376 340 337 c 0
 379 298 398 252 398 197 c 0
 398 142 379 95 340 56 c 0
 301 17 255 -3 200 -3 c 0
 145 -3 98 17 59 56 c 0
 20 95 0 142 0 197 c 0
 0 252 20 298 59 337 c 0
 98 376 145 396 200 396 c 0
200 354 m 0
 156 354 119 339 88 308 c 0
 57 277 42 241 42 197 c 0
 42 153 57 116 88 85 c 0
 119 54 156 39 200 39 c 0
 244 39 281 54 311 85 c 0
 341 116 356 153 356 197 c 0
 356 241 341 277 311 308 c 0
 281 339 244 354 200 354 c 0
187 209 m 1
 321 341 l 1
 342 319 l 1
 209 186 l 1
 187 209 l 1
218 197 m 0
 218 192 216 186 212 183 c 0
 208 180 205 178 200 178 c 0
 195 178 190 180 186 184 c 0
 182 188 180 192 180 197 c 0
 180 202 182 205 186 209 c 0
 190 213 195 215 200 215 c 0
 205 215 208 213 212 210 c 0
 216 207 218 202 218 197 c 0
EndSplineSet
Validated: 5
EndChar

StartChar: parenright
Encoding: 41 41 80
Width: 1020
VWidth: 524
Flags: HW
HStem: 0.599609 19.4004<425.656 597.988> 41.3398 40.7402<399.071 624.929> 82.0801 40.7402<399.419 624.073> 101.48 21.3398<396.934 626.437> 204.3 19.4004<453.769 569.595> 245.04 325.92<430.533 593.467> 590.36 19.3994<453.769 569.595> 691.24 42.6797<399.419 624.073> 691.24 21.3398<396.934 626.437> 733.92 38.7998<402.998 621.002> 794.06 21.3408<420.931 602.677>
VStem: 104.6 19.4004<321.656 493.988> 143.4 42.6797<292.973 522.26> 186.08 38.7998<298.418 516.702> 205.48 19.3994<294.51 520.52> 306.36 23.2793<342.005 473.205> 349.04 325.92<325.082 489.467> 694.36 19.3994<349.769 465.595> 795.24 42.6797<295.003 520.073> 795.24 21.3398<309.303 506.19> 837.92 38.7998<296.916 516.269> 898.06 21.3408<316.931 498.677>
LayerCount: 3
Fore
SplineSet
512 816.436523438 m 0x8e31c4
 371.575195312 816.436523438 250.51953125 765.591796875 151.25390625 666.326171875 c 0
 51.98828125 567.059570312 3.5634765625 448.424804688 3.5634765625 308 c 0
 3.5634765625 167.575195312 51.98828125 46.51953125 151.25390625 -52.74609375 c 0
 250.51953125 -152.01171875 371.575195312 -200.436523438 512 -200.436523438 c 0
 652.424804688 -200.436523438 771.059570312 -152.01171875 870.326171875 -52.74609375 c 0
 969.591796875 46.51953125 1020.43652344 167.575195312 1020.43652344 308 c 0
 1020.43652344 448.424804688 969.591796875 567.059570312 870.326171875 666.326171875 c 0
 771.059570312 765.591796875 652.424804688 816.436523438 512 816.436523438 c 0x8e31c4
512 763.170898438 m 0xce79cc
 640.3203125 763.170898438 746.84765625 719.58984375 836.430664062 630.0078125 c 0
 926.01171875 540.427734375 967.170898438 433.897460938 967.170898438 308 c 0
 967.170898438 182.102539062 926.01171875 73.15234375 836.430664062 -16.4306640625 c 0
 746.84765625 -106.01171875 640.3203125 -149.591796875 512 -149.591796875 c 0
 383.6796875 -149.591796875 277.15234375 -106.01171875 187.569335938 -16.4306640625 c 0
 97.98828125 73.15234375 51.98828125 182.102539062 51.98828125 308 c 0
 51.98828125 433.897460938 97.98828125 540.427734375 187.569335938 630.0078125 c 0
 277.15234375 719.58984375 383.6796875 763.170898438 512 763.170898438 c 0xce79cc
512 661.484375 m 0xaf35e4
 608.84375 661.484375 691.162109375 627.587890625 761.375976562 557.375976562 c 0
 831.587890625 487.162109375 865.484375 404.84375 865.484375 308 c 0
 865.484375 211.15625 831.587890625 126.416015625 761.375976562 56.2041015625 c 0
 691.162109375 -14.0078125 608.84375 -47.904296875 512 -47.904296875 c 0
 415.15625 -47.904296875 330.416015625 -14.0078125 260.204101562 56.2041015625 c 0
 189.9921875 126.416015625 153.673828125 211.15625 153.673828125 308 c 0
 153.673828125 404.84375 189.9921875 487.162109375 260.204101562 557.375976562 c 0
 330.416015625 627.587890625 415.15625 661.484375 512 661.484375 c 0xaf35e4
512 714.748046875 m 0
 400.62890625 714.748046875 306.204101562 673.58984375 226.307617188 593.692382812 c 0
 146.41015625 513.795898438 105.251953125 419.37109375 105.251953125 308 c 0
 105.251953125 196.62890625 146.41015625 99.783203125 226.307617188 19.88671875 c 0
 306.204101562 -60.009765625 400.62890625 -98.748046875 512 -98.748046875 c 0xcf39e4
 623.37109375 -98.748046875 717.795898438 -60.009765625 797.692382812 19.88671875 c 0
 877.58984375 99.783203125 918.748046875 196.62890625 918.748046875 308 c 0
 918.748046875 419.37109375 877.58984375 513.795898438 797.692382812 593.692382812 c 0
 717.795898438 673.58984375 623.37109375 714.748046875 512 714.748046875 c 0
512 661.484375 m 0
 608.84375 661.484375 691.162109375 627.587890625 761.375976562 557.375976562 c 0
 831.587890625 487.162109375 865.484375 404.84375 865.484375 308 c 0
 865.484375 211.15625 831.587890625 126.416015625 761.375976562 56.2041015625 c 0
 691.162109375 -14.0078125 608.84375 -47.904296875 512 -47.904296875 c 0
 415.15625 -47.904296875 330.416015625 -14.0078125 260.204101562 56.2041015625 c 0
 189.9921875 126.416015625 153.673828125 211.15625 153.673828125 308 c 0xaf35e4
 153.673828125 404.84375 189.9921875 487.162109375 260.204101562 557.375976562 c 0
 330.416015625 627.587890625 415.15625 661.484375 512 661.484375 c 0
512 714.748046875 m 0
 400.62890625 714.748046875 306.204101562 673.58984375 226.307617188 593.692382812 c 0
 146.41015625 513.795898438 105.251953125 419.37109375 105.251953125 308 c 0
 105.251953125 196.62890625 146.41015625 99.783203125 226.307617188 19.88671875 c 0
 306.204101562 -60.009765625 400.62890625 -98.748046875 512 -98.748046875 c 0xcf39e4
 623.37109375 -98.748046875 717.795898438 -60.009765625 797.692382812 19.88671875 c 0
 877.58984375 99.783203125 918.748046875 196.62890625 918.748046875 308 c 0
 918.748046875 419.37109375 877.58984375 513.795898438 797.692382812 593.692382812 c 0
 717.795898438 673.58984375 623.37109375 714.748046875 512 714.748046875 c 0
512 789.802734375 m 0
 645.162109375 789.802734375 756.534179688 741.380859375 850.95703125 646.95703125 c 0
 945.380859375 552.534179688 993.802734375 441.162109375 993.802734375 308 c 0
 993.802734375 174.837890625 945.380859375 61.0458984375 850.95703125 -33.3779296875 c 0
 756.534179688 -127.801757812 645.162109375 -176.223632812 512 -176.223632812 c 0
 378.837890625 -176.223632812 265.045898438 -127.801757812 170.622070312 -33.3779296875 c 0
 76.1982421875 61.0458984375 27.7763671875 174.837890625 27.7763671875 308 c 0
 27.7763671875 441.162109375 76.1982421875 552.534179688 170.622070312 646.95703125 c 0
 265.045898438 741.380859375 378.837890625 789.802734375 512 789.802734375 c 0
512 688.116210938 m 0x9eb3d4
 405.469726562 688.116210938 315.889648438 651.798828125 240.833984375 576.744140625 c 0
 165.779296875 501.689453125 129.463867188 414.530273438 129.463867188 308 c 0
 129.463867188 201.469726562 165.779296875 111.889648438 240.833984375 36.833984375 c 0
 315.889648438 -38.220703125 405.469726562 -74.5361328125 512 -74.5361328125 c 0
 618.530273438 -74.5361328125 708.110351562 -38.220703125 780.744140625 36.833984375 c 0
 853.377929688 111.889648438 892.116210938 201.469726562 892.116210938 308 c 0
 892.116210938 414.530273438 853.377929688 501.689453125 780.744140625 576.744140625 c 0
 708.110351562 651.798828125 618.530273438 688.116210938 512 688.116210938 c 0x9eb3d4
512 53.7822265625 m 0
 582.211914062 53.7822265625 642.740234375 77.9931640625 691.162109375 126.416015625 c 0
 739.584960938 174.837890625 763.795898438 237.788085938 763.795898438 308 c 0
 763.795898438 378.211914062 739.584960938 438.740234375 691.162109375 487.162109375 c 0
 642.740234375 535.584960938 582.211914062 559.795898438 512 559.795898438 c 0
 441.788085938 559.795898438 378.837890625 535.584960938 330.416015625 487.162109375 c 0
 281.993164062 438.740234375 255.361328125 378.211914062 255.361328125 308 c 0
 255.361328125 237.788085938 281.993164062 174.837890625 330.416015625 126.416015625 c 0
 378.837890625 77.9931640625 441.788085938 53.7822265625 512 53.7822265625 c 0
512 104.625976562 m 0
 456.314453125 104.625976562 407.892578125 123.994140625 369.154296875 162.732421875 c 0
 330.416015625 201.469726562 308.625976562 252.314453125 308.625976562 308 c 0
 308.625976562 363.685546875 330.416015625 412.107421875 369.154296875 450.845703125 c 0
 407.892578125 489.583984375 456.314453125 511.374023438 512 511.374023438 c 0
 567.685546875 511.374023438 616.107421875 489.583984375 654.845703125 450.845703125 c 0
 693.583984375 412.107421875 715.374023438 363.685546875 715.374023438 308 c 0
 715.374023438 252.314453125 693.583984375 201.469726562 654.845703125 162.732421875 c 0
 616.107421875 123.994140625 567.685546875 104.625976562 512 104.625976562 c 0
512 77.9931640625 m 1024
512 77.9931640625 m 1024
512 77.9931640625 m 0
 449.05078125 77.9931640625 393.366210938 102.204101562 349.784179688 145.784179688 c 0
 306.204101562 189.366210938 284.415039062 245.05078125 284.415039062 308 c 0
 284.415039062 370.94921875 306.204101562 424.213867188 349.784179688 467.793945312 c 0
 393.366210938 511.374023438 449.05078125 535.584960938 512 535.584960938 c 0
 574.94921875 535.584960938 628.213867188 511.374023438 671.793945312 467.793945312 c 0
 715.374023438 424.213867188 739.584960938 370.94921875 739.584960938 308 c 0
 739.584960938 245.05078125 715.374023438 189.366210938 671.793945312 145.784179688 c 0
 628.213867188 102.204101562 574.94921875 77.9931640625 512 77.9931640625 c 0
512 77.9931640625 m 1024
EndSplineSet
EndChar

StartChar: braceleft
Encoding: 123 123 81
Width: 1024
VWidth: 0
Flags: HW
LayerCount: 3
Fore
SplineSet
581.115234375 735.013671875 m 2
 798.5859375 735.013671875 974.439453125 559.009765625 974.439453125 341.196289062 c 0
 974.439453125 123.40234375 798.115234375 -53.14453125 580.6640625 -53.14453125 c 2
 580.6640625 -53.14453125 513.455078125 -53.01171875 479.486328125 -53.01171875 c 0
 421.33984375 -53.01171875 363.060546875 -53.01171875 304.646484375 -53.01171875 c 0
 299.873046875 -53.298828125 269.9921875 -53.01171875 272.61328125 -52.724609375 c 1
 147.953125 -43.6796875 49.560546875 60.26953125 49.560546875 187.529296875 c 1
 49.71484375 187.529296875 l 2
 49.71484375 230.334960938 84.37890625 265.059570312 127.134765625 265.059570312 c 0
 169.87890625 265.059570312 204.544921875 230.334960938 204.544921875 187.529296875 c 0
 204.544921875 187.395507812 204.482421875 187.251953125 204.482421875 187.067382812 c 0
 204.748046875 139.892578125 242.998046875 101.670898438 290.20703125 101.670898438 c 0
 337.5078125 101.670898438 375.951171875 140.12890625 375.951171875 187.529296875 c 0
 375.951171875 232.51953125 341.298828125 269.294921875 297.345703125 272.986328125 c 0
 296.84375 272.946289062 296.392578125 272.89453125 295.931640625 272.89453125 c 0
 258.41015625 272.89453125 227.984375 303.374023438 227.984375 340.950195312 c 0
 227.984375 378.514648438 258.4296875 409.014648438 295.931640625 409.014648438 c 0
 296.177734375 409.014648438 296.3828125 408.974609375 296.619140625 408.974609375 c 0
 340.9609375 412.255859375 375.951171875 449.247070312 375.951171875 494.473632812 c 0
 375.951171875 541.874023438 337.529296875 580.30078125 290.20703125 580.30078125 c 0
 243.130859375 580.30078125 204.994140625 542.345703125 204.544921875 495.314453125 c 0
 204.544921875 452.5078125 169.87890625 417.793945312 127.134765625 417.793945312 c 0
 84.666015625 417.793945312 50.2265625 452.036132812 49.755859375 494.473632812 c 2
 49.5703125 494.473632812 l 1
 49.5703125 621.671875 148.046875 725.834960938 272.80859375 734.80859375 c 1
 272.0703125 734.849609375 274.015625 735.013671875 275.73828125 735.013671875 c 0
 280.529296875 735.30078125 285.36328125 735.485351562 290.216796875 735.485351562 c 0
 295.091796875 735.485351562 299.9453125 735.30078125 304.73828125 735.013671875 c 2
 532.982421875 735.013671875 l 1
 581.115234375 735.013671875 l 2
649.7890625 495.888671875 m 0
 649.7890625 542.293945312 612.24609375 579.931640625 565.88671875 579.931640625 c 0
 519.55859375 579.931640625 481.953125 542.293945312 481.953125 495.888671875 c 0
 481.953125 449.493164062 519.55859375 411.866210938 565.88671875 411.866210938 c 0
 612.24609375 411.866210938 649.7890625 449.493164062 649.7890625 495.888671875 c 0
649.830078125 298 m 1
 649.7890625 298 l 2
 649.7890625 338.262695312 612.21484375 370.916015625 565.88671875 370.916015625 c 0
 519.517578125 370.916015625 481.953125 338.2734375 481.953125 298 c 2
 481.912109375 298 l 1
 481.912109375 167.521484375 l 1
 482.435546875 167.521484375 l 2
 486.77734375 130.775390625 522.486328125 102.15234375 565.896484375 102.15234375 c 0
 609.296875 102.15234375 644.986328125 130.775390625 649.34765625 167.521484375 c 2
 649.849609375 167.521484375 l 1
 649.849609375 298 l 1
 649.830078125 298 l 1
EndSplineSet
EndChar

StartChar: uniF1C0
Encoding: 61888 61888 82
Width: 870
VWidth: 1792
Flags: HW
HStem: -140.8 140.8<208.509 661.491> 70.4004 140.8<208.509 661.491> 281.6 140.801<208.509 661.491> 492.8 352<207.368 662.632> 495.9 20G<12.5996 57.9746 812.025 857.4>
LayerCount: 3
Fore
SplineSet
435 377.512695312 m 0xe8
 605.516601562 377.512695312 776.599609375 408.102539062 870.072265625 473.817382812 c 1
 870.072265625 377.512695312 l 2
 870.072265625 297.634765625 675.196289062 232.487304688 435 232.487304688 c 0
 194.803710938 232.487304688 -0.072265625 297.634765625 -0.072265625 377.512695312 c 2
 -0.072265625 473.817382812 l 1
 93.400390625 408.102539062 264.483398438 377.512695312 435 377.512695312 c 0xe8
435 -57.5595703125 m 0
 605.516601562 -57.5595703125 776.599609375 -26.96875 870.072265625 38.7451171875 c 1
 870.072265625 -57.5595703125 l 2
 870.072265625 -137.436523438 675.196289062 -202.583984375 435 -202.583984375 c 0
 194.803710938 -202.583984375 -0.072265625 -137.436523438 -0.072265625 -57.5595703125 c 2
 -0.072265625 38.7451171875 l 1
 93.400390625 -26.96875 264.483398438 -57.5595703125 435 -57.5595703125 c 0
435 159.9765625 m 0
 605.516601562 159.9765625 776.599609375 190.567382812 870.072265625 256.28125 c 1
 870.072265625 159.9765625 l 2
 870.072265625 80.099609375 675.196289062 14.9521484375 435 14.9521484375 c 0
 194.803710938 14.9521484375 -0.072265625 80.099609375 -0.072265625 159.9765625 c 2
 -0.072265625 256.28125 l 1
 93.400390625 190.567382812 264.483398438 159.9765625 435 159.9765625 c 0
435 812.583984375 m 0xf0
 675.196289062 812.583984375 870.072265625 747.436523438 870.072265625 667.559570312 c 2
 870.072265625 595.047851562 l 2
 870.072265625 515.170898438 675.196289062 450.0234375 435 450.0234375 c 0
 194.803710938 450.0234375 -0.072265625 515.170898438 -0.072265625 595.047851562 c 2
 -0.072265625 667.559570312 l 2
 -0.072265625 747.436523438 194.803710938 812.583984375 435 812.583984375 c 0xf0
EndSplineSet
EndChar

StartChar: uniF043
Encoding: 61507 61507 83
Width: 543
VWidth: 1792
Flags: HW
HStem: 0.200195 140.8<162.25 349.825>
VStem: -9.59961 140.8<172.05 309.575> 272 281.6<172.05 309.575>
LayerCount: 3
Fore
SplineSet
272 202.659179688 m 0
 272 215.893554688 267.765625 228.599609375 261.412109375 239.1875 c 0
 254.53125 249.774414062 226.473632812 285.771484375 215.356445312 321.240234375 c 0
 213.768554688 327.0625 208.474609375 329.709960938 204.240234375 329.709960938 c 0
 200.004882812 329.709960938 194.7109375 327.0625 193.123046875 321.240234375 c 0
 182.005859375 285.771484375 153.950195312 249.774414062 147.067382812 239.1875 c 0
 140.715820312 228.599609375 136.479492188 215.893554688 136.479492188 202.659179688 c 0
 136.479492188 165.075195312 166.654296875 134.900390625 204.240234375 134.900390625 c 0
 241.825195312 134.900390625 272 165.075195312 272 202.659179688 c 0
543.040039062 270.419921875 m 0
 543.040039062 120.606445312 421.8125 -0.6201171875 272 -0.6201171875 c 0
 122.1875 -0.6201171875 0.9599609375 120.606445312 0.9599609375 270.419921875 c 0
 0.9599609375 323.887695312 17.3701171875 373.6484375 43.8388671875 415.998046875 c 0
 70.837890625 458.348632812 184.123046875 601.809570312 227.002929688 744.740234375 c 0
 233.884765625 767.502929688 255.059570312 778.620117188 272 778.620117188 c 0
 288.940429688 778.620117188 310.643554688 767.502929688 316.997070312 744.740234375 c 0
 359.876953125 601.809570312 473.162109375 458.348632812 500.161132812 415.998046875 c 0
 527.159179688 373.6484375 543.040039062 323.887695312 543.040039062 270.419921875 c 0
EndSplineSet
EndChar

StartChar: uniF03E
Encoding: 61502 61502 84
Width: 1002
VWidth: 1792
Flags: HW
VStem: -458 128<32 1248> 1334 128<32 1248>
LayerCount: 3
Fore
SplineSet
334.799804688 502.200195312 m 0
 334.799804688 446.815429688 289.865234375 401.880859375 234.48046875 401.880859375 c 0
 179.094726562 401.880859375 134.16015625 446.815429688 134.16015625 502.200195312 c 0
 134.16015625 557.584960938 179.094726562 602.51953125 234.48046875 602.51953125 c 0
 289.865234375 602.51953125 334.799804688 557.584960938 334.799804688 502.200195312 c 0
869.83984375 301.559570312 m 1
 869.83984375 67.48046875 l 1
 134.16015625 67.48046875 l 1
 134.16015625 167.799804688 l 1
 301.359375 335 l 1
 384.959960938 251.400390625 l 1
 652.48046875 518.919921875 l 1
 869.83984375 301.559570312 l 1
920 669.400390625 m 2
 84 669.400390625 l 2
 75.1181640625 669.400390625 67.2802734375 661.5625 67.2802734375 652.680664062 c 2
 67.2802734375 17.3193359375 l 2
 67.2802734375 8.4375 75.1181640625 0.599609375 84 0.599609375 c 2
 920 0.599609375 l 2
 928.881835938 0.599609375 936.719726562 8.4375 936.719726562 17.3193359375 c 2
 936.719726562 652.680664062 l 2
 936.719726562 661.5625 928.881835938 669.400390625 920 669.400390625 c 2
1003.59960938 652.680664062 m 2
 1003.59960938 17.3193359375 l 2
 1003.59960938 -28.66015625 965.98046875 -66.2802734375 920 -66.2802734375 c 2
 84 -66.2802734375 l 2
 38.01953125 -66.2802734375 0.400390625 -28.66015625 0.400390625 17.3193359375 c 2
 0.400390625 652.680664062 l 2
 0.400390625 698.66015625 38.01953125 736.280273438 84 736.280273438 c 2
 920 736.280273438 l 1
 920 736.280273438 l 1
 965.98046875 736.280273438 1003.59960938 698.66015625 1003.59960938 652.680664062 c 2
EndSplineSet
EndChar

StartChar: uniF09E
Encoding: 61598 61598 85
Width: 753
VWidth: 1792
Flags: HW
VStem: -380 1408
LayerCount: 3
Fore
SplineSet
202.927734375 104.28515625 m 0
 202.927734375 47.6162109375 156.952148438 1.640625 100.28515625 1.640625 c 0
 43.6162109375 1.640625 -2.359375 47.6162109375 -2.359375 104.28515625 c 0
 -2.359375 160.952148438 43.6162109375 206.927734375 100.28515625 206.927734375 c 0
 156.952148438 206.927734375 202.927734375 160.952148438 202.927734375 104.28515625 c 0
476.642578125 38.529296875 m 0
 477.178710938 28.9052734375 473.970703125 19.8173828125 467.5546875 12.8681640625 c 0
 461.139648438 5.3837890625 452.05078125 1.640625 442.428710938 1.640625 c 2
 370.258789062 1.640625 l 2
 352.615234375 1.640625 338.181640625 15.0068359375 336.578125 32.6484375 c 0
 321.075195312 195.702148438 191.701171875 325.075195312 28.6484375 340.578125 c 0
 11.0068359375 342.181640625 -2.359375 356.615234375 -2.359375 374.258789062 c 2
 -2.359375 446.428710938 l 2
 -2.359375 456.05078125 1.3837890625 465.139648438 8.8681640625 471.5546875 c 0
 14.7490234375 477.435546875 23.302734375 480.642578125 31.85546875 480.642578125 c 0
 32.92578125 480.642578125 33.4599609375 480.642578125 34.529296875 480.642578125 c 0
 148.3984375 471.5546875 255.853515625 421.8359375 336.578125 340.578125 c 0
 417.8359375 259.853515625 467.5546875 152.3984375 476.642578125 38.529296875 c 0
750.359375 37.4599609375 m 0
 750.892578125 28.37109375 747.685546875 19.2841796875 740.735351562 12.3330078125 c 0
 734.3203125 5.3837890625 725.767578125 1.640625 716.14453125 1.640625 c 2
 639.696289062 1.640625 l 2
 621.520507812 1.640625 606.55078125 15.541015625 605.482421875 33.7177734375 c 0
 587.83984375 344.3203125 340.3203125 591.83984375 29.7177734375 610.017578125 c 0
 11.541015625 611.084960938 -2.359375 626.0546875 -2.359375 643.696289062 c 2
 -2.359375 720.14453125 l 2
 -2.359375 729.767578125 1.3837890625 738.3203125 8.3330078125 744.735351562 c 0
 14.7490234375 751.151367188 23.302734375 754.359375 31.85546875 754.359375 c 0
 32.390625 754.359375 32.92578125 754.359375 33.4599609375 754.359375 c 0
 220.5703125 744.735351562 396.452148438 666.149414062 529.03515625 533.03515625 c 0
 662.149414062 400.452148438 740.735351562 224.5703125 750.359375 37.4599609375 c 0
EndSplineSet
EndChar

StartChar: parenleft
Encoding: 40 40 86
Width: 938
VWidth: 0
Flags: HW
LayerCount: 3
Fore
SplineSet
408.427734375 558.599609375 m 4
 598.563476562 478.000976562 732.099609375 289.556640625 732.099609375 70.2001953125 c 4
 732.099609375 -1.4599609375 717.849609375 -69.8203125 692.029296875 -132.200195312 c 4
 751.900390625 -158.599609375 l 4
 781.669921875 -86.7685546875 798.099609375 -8.0048828125 798.099609375 74.599609375 c 4
 798.099609375 320.784179688 652.172851562 532.83984375 442.086914062 629 c 4
 408.427734375 558.599609375 l 4
716.700195312 690.599609375 m 5
 -2.7001953125 -0.2001953125 l 5
 936.700195312 -0.2001953125 l 5
 936.700195312 98.7998046875 l 5
 256.900390625 101 l 5
 787.099609375 618 l 5
 716.700195312 690.599609375 l 5
EndSplineSet
EndChar

StartChar: bar
Encoding: 124 124 87
Width: 1024
VWidth: 80
Flags: HWO
LayerCount: 3
Fore
SplineSet
161.532226562 846.357421875 m 0
 283.40234375 906.2109375 423.301757812 847.799804688 475.22265625 715.112304688 c 0
 503.346679688 644.442382812 488.203125 599.732421875 312.96875 238.448242188 c 0
 289.171875 187.96875 231.481445312 200.94921875 199.751953125 264.408203125 c 0
 5.0478515625 650.932617188 -2.1630859375 765.591796875 161.532226562 846.357421875 c 0
342.53515625 721.602539062 m 0
 230.760742188 822.560546875 77.8818359375 686.267578125 179.560546875 576.65625 c 0
 204.079101562 549.974609375 229.318359375 538.436523438 263.932617188 538.436523438 c 0
 361.284179688 538.436523438 412.484375 658.143554688 342.53515625 721.602539062 c 0
682.907226562 549.974609375 m 0
 744.203125 569.4453125 746.366210938 569.4453125 808.3828125 550.6953125 c 0
 977.126953125 500.216796875 1006.69335938 362.481445312 897.802734375 133.163085938 c 0
 858.140625 50.955078125 822.084960938 -30.5322265625 816.315429688 -47.83984375 c 0
 780.258789062 -163.940429688 726.895507812 -125 621.611328125 93.5009765625 c 0
 493.971679688 360.318359375 511.279296875 494.448242188 682.907226562 549.974609375 c 0
827.1328125 413.681640625 m 0
 804.77734375 436.036132812 773.047851562 451.901367188 749.971679688 451.901367188 c 0
 651.8984375 451.901367188 602.862304688 328.588867188 672.811523438 259.360351562 c 0
 721.84765625 209.602539062 778.095703125 209.602539062 827.1328125 259.360351562 c 0
 876.890625 308.397460938 876.890625 364.645507812 827.1328125 413.681640625 c 0
EndSplineSet
EndChar

StartChar: braceright
Encoding: 125 125 88
Width: 1024
VWidth: -180
Flags: H
LayerCount: 3
Fore
SplineSet
837.66015625 576.038085938 m 0
 866.028320312 604.405273438 924.838867188 603.713867188 956.666015625 574.654296875 c 0
 1007.86621094 528.296875 972.579101562 431.432617188 905.465820312 431.432617188 c 0
 868.103515625 431.432617188 719.346679688 270.221679688 719.346679688 230.091796875 c 0
 719.346679688 216.25390625 710.352539062 194.805664062 698.58984375 182.3515625 c 0
 657.768554688 137.377929688 539.455078125 187.88671875 539.455078125 250.157226562 c 0
 539.455078125 281.291992188 427.368164062 376.081054688 392.08203125 375.389648438 c 0
 365.098632812 374.005859375 223.260742188 219.021484375 205.962890625 171.28125 c 0
 200.427734375 156.750976562 177.595703125 131.151367188 154.762695312 115.23828125 c 2
 113.94140625 86.1787109375 l 1
 77.271484375 119.389648438 l 2
 10.849609375 181.659179688 47.51953125 291.669921875 129.854492188 275.756835938 c 0
 167.909179688 268.837890625 318.049804688 420.362304688 318.049804688 466.02734375 c 0
 318.049804688 514.458984375 345.725585938 542.134765625 394.157226562 542.134765625 c 4
 442.58984375 542.134765625 484.103515625 504.081054688 484.103515625 458.416015625 c 0
 484.103515625 421.74609375 569.8984375 352.556640625 625.94140625 344.25390625 c 0
 682.676757812 335.951171875 816.211914062 465.334960938 816.211914062 528.296875 c 0
 816.211914062 542.134765625 825.8984375 563.583984375 837.66015625 576.038085938 c 0
EndSplineSet
EndChar

StartChar: asciitilde
Encoding: 126 126 89
Width: 1024
VWidth: -50
Flags: H
LayerCount: 3
Fore
SplineSet
354.626953125 722.650390625 m 0
 381.575195312 746.364257812 382.65234375 746.364257812 390.198242188 726.961914062 c 0
 399.899414062 697.859375 419.30078125 689.235351562 426.846679688 708.637695312 c 0
 434.391601562 729.118164062 451.637695312 730.1953125 477.5078125 710.793945312 c 0
 493.67578125 697.859375 494.75390625 692.469726562 481.819335938 668.755859375 c 2
 466.728515625 640.73046875 l 1
 434.391601562 661.2109375 l 2
 404.2109375 679.53515625 399.899414062 679.53515625 382.65234375 663.366210938 c 0
 368.639648438 649.353515625 363.250976562 648.275390625 358.938476562 659.0546875 c 0
 355.705078125 666.599609375 347.08203125 678.45703125 339.537109375 686.001953125 c 0
 328.7578125 695.703125 331.991210938 703.248046875 354.626953125 722.650390625 c 0
552.959960938 663.366210938 m 0
 559.427734375 666.599609375 575.595703125 663.366210938 588.530273438 653.665039062 c 0
 610.088867188 640.73046875 611.166015625 634.262695312 601.46484375 611.626953125 c 0
 587.452148438 582.524414062 574.517578125 579.290039062 546.4921875 600.848632812 c 0
 527.090820312 615.938476562 531.40234375 648.275390625 552.959960938 663.366210938 c 0
244.681640625 639.65234375 m 0
 269.473632812 665.522460938 271.629882812 665.522460938 295.342773438 638.575195312 c 0
 313.666992188 617.016601562 313.666992188 614.861328125 292.109375 595.458984375 c 0
 264.083984375 569.58984375 256.5390625 569.58984375 239.29296875 597.614257812 c 0
 226.357421875 617.016601562 227.435546875 623.484375 244.681640625 639.65234375 c 0
654.282226562 577.134765625 m 0
 671.528320312 611.626953125 676.91796875 612.705078125 703.865234375 592.225585938 c 0
 717.877929688 581.446289062 721.111328125 569.58984375 715.721679688 549.109375 c 0
 708.176757812 516.772460938 704.943359375 515.694335938 667.216796875 534.018554688 c 0
 641.34765625 545.875976562 640.26953125 548.03125 654.282226562 577.134765625 c 0
141.204101562 565.278320312 m 0
 163.83984375 584.6796875 164.91796875 584.6796875 186.475585938 557.732421875 c 2
 208.033203125 529.70703125 l 1
 182.1640625 509.227539062 l 2
 148.749023438 483.357421875 147.671875 483.357421875 132.581054688 517.850585938 c 0
 120.724609375 542.642578125 121.801757812 548.03125 141.204101562 565.278320312 c 0
771.772460938 515.694335938 m 0
 792.252929688 546.954101562 795.486328125 546.954101562 822.43359375 527.551757812 c 0
 836.446289062 516.772460938 839.6796875 504.916015625 834.290039062 484.435546875 c 0
 827.823242188 458.56640625 797.642578125 443.475585938 797.642578125 467.189453125 c 0
 797.642578125 473.657226562 787.94140625 477.96875 776.083984375 477.96875 c 0
 750.21484375 477.96875 749.13671875 482.280273438 771.772460938 515.694335938 c 0
57.12890625 499.526367188 m 2
 70.0634765625 510.305664062 86.2314453125 515.694335938 93.7763671875 513.5390625 c 0
 111.0234375 507.071289062 112.100585938 488.747070312 95.9326171875 488.747070312 c 0
 88.3876953125 488.747070312 86.2314453125 477.96875 90.54296875 461.799804688 c 0
 99.166015625 428.385742188 89.46484375 427.307617188 58.2060546875 457.48828125 c 2
 33.4150390625 481.202148438 l 1
 57.12890625 499.526367188 l 2
888.185546875 455.333007812 m 0
 911.899414062 481.202148438 923.755859375 483.357421875 941.001953125 465.033203125 c 0
 951.78125 454.254882812 949.625 445.631835938 931.30078125 427.307617188 c 0
 911.899414062 405.749023438 906.509765625 404.671875 888.185546875 417.606445312 c 0
 868.783203125 432.697265625 868.783203125 433.774414062 888.185546875 455.333007812 c 0
113.178710938 418.684570312 m 0
 131.502929688 433.774414062 146.59375 445.631835938 146.59375 445.631835938 c 2
 147.671875 445.631835938 156.294921875 433.774414062 165.99609375 418.684570312 c 0
 182.1640625 393.892578125 182.1640625 391.737304688 157.373046875 366.9453125 c 2
 131.502929688 341.076171875 l 1
 117.490234375 365.8671875 l 2
 109.9453125 379.879882812 99.166015625 391.737304688 92.69921875 391.737304688 c 0
 86.2314453125 392.814453125 95.9326171875 404.671875 113.178710938 418.684570312 c 0
612.244140625 438.0859375 m 0
 603.62109375 441.3203125 606.854492188 444.553710938 618.711914062 444.553710938 c 0
 630.568359375 445.631835938 637.036132812 442.397460938 632.724609375 439.1640625 c 0
 629.490234375 435.930664062 619.7890625 434.852539062 612.244140625 438.0859375 c 0
250.071289062 380.958007812 m 0
 250.071289062 396.048828125 252.227539062 401.4375 255.4609375 394.970703125 c 0
 257.6171875 387.424804688 257.6171875 374.490234375 255.4609375 368.0234375 c 0
 252.227539062 360.477539062 250.071289062 365.8671875 250.071289062 380.958007812 c 0
873.094726562 343.231445312 m 0
 873.094726562 380.958007812 873.094726562 382.036132812 916.2109375 378.801757812 c 0
 945.313476562 377.724609375 956.092773438 373.413085938 948.547851562 365.8671875 c 0
 943.158203125 360.477539062 937.768554688 344.309570312 937.768554688 330.296875 c 0
 937.768554688 309.81640625 932.37890625 305.504882812 905.431640625 305.504882812 c 0
 875.250976562 305.504882812 873.094726562 308.739257812 873.094726562 343.231445312 c 0
204.799804688 316.284179688 m 0
 204.799804688 335.686523438 231.747070312 328.140625 245.759765625 304.427734375 c 0
 258.694335938 285.025390625 257.6171875 278.557617188 237.13671875 260.233398438 c 2
 214.500976562 238.67578125 l 1
 192.943359375 260.233398438 l 2
 168.151367188 287.180664062 165.99609375 305.504882812 188.631835938 305.504882812 c 0
 197.254882812 305.504882812 204.799804688 310.89453125 204.799804688 316.284179688 c 0
908.665039062 244.065429688 m 0
 926.989257812 246.220703125 943.158203125 249.455078125 943.158203125 249.455078125 c 2
 944.235351562 250.532226562 942.080078125 234.364257812 939.923828125 213.883789062 c 0
 935.612304688 180.469726562 931.30078125 176.158203125 904.353515625 176.158203125 c 0
 877.40625 176.158203125 873.094726562 180.469726562 873.094726562 207.416992188 c 0
 873.094726562 235.442382812 877.40625 239.75390625 908.665039062 244.065429688 c 0
272.70703125 205.260742188 m 0
 300.732421875 233.286132812 312.58984375 235.442382812 312.58984375 214.961914062 c 0
 312.58984375 207.416992188 320.134765625 194.482421875 328.7578125 186.936523438 c 0
 343.848632812 174.001953125 342.770507812 170.768554688 316.901367188 153.522460938 c 0
 288.875976562 135.198242188 286.719726562 135.198242188 268.395507812 157.833984375 c 0
 250.071289062 180.469726562 250.071289062 182.625 272.70703125 205.260742188 c 0
355.705078125 100.705078125 m 0
 355.705078125 120.107421875 382.65234375 112.5625 396.665039062 88.8486328125 c 0
 409.599609375 69.4462890625 408.522460938 62.978515625 388.041992188 44.654296875 c 0
 365.40625 24.1748046875 365.40625 24.1748046875 344.926757812 48.966796875 c 0
 320.134765625 79.1474609375 317.978515625 89.9267578125 339.537109375 89.9267578125 c 0
 348.16015625 89.9267578125 355.705078125 95.3154296875 355.705078125 100.705078125 c 0
866.626953125 95.3154296875 m 0
 861.23828125 108.250976562 868.783203125 111.484375 900.041992188 111.484375 c 0
 932.37890625 111.484375 938.846679688 108.250976562 933.45703125 94.23828125 c 0
 930.223632812 84.537109375 926.989257812 69.4462890625 926.989257812 60.8232421875 c 0
 926.989257812 47.888671875 919.444335938 45.732421875 894.65234375 51.1220703125 c 0
 876.328125 54.35546875 862.315429688 52.2001953125 862.315429688 46.810546875 c 0
 862.315429688 40.3427734375 868.783203125 37.109375 876.328125 39.265625 c 0
 882.795898438 40.3427734375 889.262695312 34.9541015625 889.262695312 28.486328125 c 0
 889.262695312 20.94140625 886.029296875 14.4736328125 881.717773438 14.4736328125 c 0
 821.35546875 14.4736328125 822.43359375 13.3955078125 827.823242188 46.810546875 c 0
 831.056640625 69.4462890625 838.602539062 79.1474609375 852.614257812 79.1474609375 c 0
 865.549804688 79.1474609375 869.861328125 84.537109375 866.626953125 95.3154296875 c 0
431.158203125 57.58984375 m 0
 431.158203125 86.6923828125 434.391601562 89.9267578125 463.495117188 89.9267578125 c 0
 492.59765625 89.9267578125 495.83203125 86.6923828125 495.83203125 57.58984375 c 0
 495.83203125 28.486328125 492.59765625 25.2529296875 463.495117188 25.2529296875 c 0
 434.391601562 25.2529296875 431.158203125 28.486328125 431.158203125 57.58984375 c 0
568.05078125 83.458984375 m 0
 572.362304688 86.6923828125 582.063476562 87.7705078125 590.686523438 84.537109375 c 0
 598.231445312 81.302734375 610.088867188 79.1474609375 615.477539062 79.1474609375 c 0
 620.8671875 79.1474609375 625.178710938 65.134765625 625.178710938 46.810546875 c 0
 625.178710938 18.78515625 621.9453125 15.5517578125 601.46484375 18.78515625 c 0
 587.452148438 22.0185546875 573.440429688 24.1748046875 569.12890625 24.1748046875 c 0
 558.349609375 25.2529296875 558.349609375 72.6796875 568.05078125 83.458984375 c 0
692.008789062 46.810546875 m 0
 693.0859375 75.9140625 696.3203125 79.1474609375 727.579101562 79.1474609375 c 0
 758.837890625 79.1474609375 762.071289062 75.9140625 760.994140625 46.810546875 c 0
 759.916015625 17.70703125 756.681640625 14.4736328125 725.422851562 14.4736328125 c 0
 694.1640625 14.4736328125 690.930664062 17.70703125 692.008789062 46.810546875 c 0
EndSplineSet
EndChar
